<svg width="483" height="483" viewBox="0 0 483 483" fill="none" xmlns="http://www.w3.org/2000/svg">
<path d="M241.18 482.36C374.38 482.36 482.36 374.38 482.36 241.18C482.36 107.98 374.38 0 241.18 0C107.98 0 0 107.98 0 241.18C0 374.38 107.98 482.36 241.18 482.36Z" fill="url(#paint0_radial_862_12504)"/>
<g style="mix-blend-mode:soft-light">
<path d="M241.18 482.36C374.38 482.36 482.36 374.38 482.36 241.18C482.36 107.98 374.38 0 241.18 0C107.98 0 0 107.98 0 241.18C0 374.38 107.98 482.36 241.18 482.36Z" fill="url(#paint1_radial_862_12504)"/>
</g>
<g style="mix-blend-mode:soft-light">
<path d="M241.18 482.36C374.38 482.36 482.36 374.38 482.36 241.18C482.36 107.98 374.38 0 241.18 0C107.98 0 0 107.98 0 241.18C0 374.38 107.98 482.36 241.18 482.36Z" fill="url(#paint2_radial_862_12504)"/>
</g>
<g style="mix-blend-mode:overlay">
<path d="M241.18 482.36C374.38 482.36 482.36 374.38 482.36 241.18C482.36 107.98 374.38 0 241.18 0C107.98 0 0 107.98 0 241.18C0 374.38 107.98 482.36 241.18 482.36Z" fill="url(#paint3_radial_862_12504)" fill-opacity="0.7"/>
</g>
<mask id="mask0_862_12504" style="mask-type:alpha" maskUnits="userSpaceOnUse" x="0" y="0" width="483" height="483">
<path d="M241.18 482.36C374.38 482.36 482.36 374.38 482.36 241.18C482.36 107.98 374.38 0 241.18 0C107.98 0 0 107.98 0 241.18C0 374.38 107.98 482.36 241.18 482.36Z" fill="white"/>
</mask>
<g mask="url(#mask0_862_12504)">
<g filter="url(#filter0_f_862_12504)">
<path d="M-1.3759 234.299C-1.11402 230.872 0.0137008 230.529 0.342619 234.009C0.708055 237.875 -0.00231624 245.647 0.16871 250.335C0.621554 262.748 2.52441 273.542 4.48605 282.321C10.8075 310.613 19.5617 328.843 27.7268 344.289C54.5663 395.061 83.9667 420.771 112.648 440.147C154.689 468.55 197.072 477.584 239.49 479.5C240.56 479.549 240.738 486.518 239.686 487.425C237.788 489.062 235.436 487.438 233.494 487.37C227.915 487.174 222.335 486.791 216.756 486.211C200.213 484.492 183.67 480.991 167.162 475.359C122.275 460.044 73.8765 433.821 31.6092 359.962C28.9502 355.316 26.3124 350.424 23.7118 345.168C21.6321 340.964 19.5726 336.557 17.5493 331.844C10.8946 316.342 -4.61323 276.659 -1.3759 234.299ZM239.52 487.5C238.499 487.532 238.241 481.035 239.214 479.686C240.684 477.647 242.888 479.326 244.439 479.229C250.877 478.827 257.314 478.23 263.75 477.422C281.395 475.206 299.028 471.423 316.621 465.596C360.257 451.146 407.17 429.116 448.305 361.431C450.923 357.124 453.518 352.554 456.079 347.641C463.86 332.713 483.361 293.085 481.107 243.821C480.917 239.669 482.181 237.181 482.747 240.744C483.467 245.28 483.175 254.736 482.977 259.768C482.341 275.884 479.866 289.512 477.257 300.518C468.987 335.399 457.376 355.623 446.744 372.51C412.184 427.397 374.648 449.524 338.155 465.425C305.424 479.686 272.444 486.484 239.52 487.5Z" fill="#401C02"/>
</g>
<g filter="url(#filter1_f_862_12504)">
<path d="M-1.3759 234.299C-1.11402 230.872 0.0137008 230.529 0.342619 234.009C0.708055 237.875 -0.00231624 245.647 0.16871 250.335C0.621554 262.748 2.52441 273.542 4.48605 282.321C10.8075 310.613 19.5617 328.843 27.7268 344.289C54.5663 395.061 83.9667 420.771 112.648 440.147C154.689 468.55 197.072 477.584 239.49 479.5C240.56 479.549 240.738 486.518 239.686 487.425C237.788 489.062 235.436 487.438 233.494 487.37C227.915 487.174 222.335 486.791 216.756 486.211C200.213 484.492 183.67 480.991 167.162 475.359C122.275 460.044 73.8765 433.821 31.6092 359.962C28.9502 355.316 26.3124 350.424 23.7118 345.168C21.6321 340.964 19.5726 336.557 17.5493 331.844C10.8946 316.342 -4.61323 276.659 -1.3759 234.299ZM239.52 487.5C238.499 487.532 238.241 481.035 239.214 479.686C240.684 477.647 242.888 479.326 244.439 479.229C250.877 478.827 257.314 478.23 263.75 477.422C281.395 475.206 299.028 471.423 316.621 465.596C360.257 451.146 407.17 429.116 448.305 361.431C450.923 357.124 453.518 352.554 456.079 347.641C463.86 332.713 483.361 293.085 481.107 243.821C480.917 239.669 482.181 237.181 482.747 240.744C483.467 245.28 483.175 254.736 482.977 259.768C482.341 275.884 479.866 289.512 477.257 300.518C468.987 335.399 457.376 355.623 446.744 372.51C412.184 427.397 374.648 449.524 338.155 465.425C305.424 479.686 272.444 486.484 239.52 487.5Z" fill="#401C02"/>
</g>
</g>
<path d="M337.617 323.859C337.811 323.74 338.039 323.691 338.265 323.719C338.49 323.747 338.7 323.852 338.858 324.015C339.016 324.178 339.114 324.39 339.136 324.616C339.158 324.842 339.102 325.069 338.977 325.259C337.105 327.934 335.04 330.467 332.797 332.839C331.977 333.699 331.157 334.559 330.317 335.399C329.477 336.239 328.577 337.009 327.707 337.819C326.837 338.629 325.937 339.439 325.017 340.189L322.217 342.409C314.569 348.219 306.228 353.056 297.387 356.809C261.288 371.216 221.036 371.216 184.937 356.809C176.114 353.06 167.79 348.23 160.157 342.429L157.357 340.209C156.437 339.449 155.547 338.639 154.667 337.839C153.787 337.039 152.907 336.259 152.057 335.419C151.207 334.579 150.397 333.709 149.577 332.859C147.331 330.473 145.262 327.927 143.387 325.239C143.263 325.049 143.207 324.822 143.228 324.596C143.25 324.37 143.348 324.158 143.506 323.995C143.665 323.832 143.874 323.727 144.099 323.699C144.325 323.671 144.553 323.72 144.747 323.839C151.255 327.742 158.067 331.113 165.117 333.919C173.205 337.168 181.512 339.842 189.977 341.919C223.719 349.506 258.725 349.506 292.467 341.919C300.934 339.848 309.241 337.174 317.327 333.919C324.351 331.118 331.136 327.754 337.617 323.859Z" fill="url(#paint4_radial_862_12504)"/>
<path d="M337.407 323.859C337.601 323.745 337.827 323.7 338.05 323.73C338.272 323.761 338.478 323.865 338.634 324.027C338.79 324.189 338.887 324.398 338.909 324.622C338.932 324.845 338.878 325.07 338.757 325.259C336.885 327.934 334.82 330.467 332.577 332.839C331.757 333.699 330.947 334.559 330.097 335.399C329.247 336.239 328.357 337.009 327.487 337.819C326.617 338.629 325.727 339.439 324.797 340.189L321.997 342.409C314.347 348.222 306.003 353.059 297.157 356.809C261.055 371.215 220.8 371.215 184.697 356.809C175.856 353.052 167.516 348.212 159.867 342.399L157.067 340.179C156.147 339.419 155.267 338.609 154.387 337.809C153.507 337.009 152.617 336.229 151.777 335.389C150.937 334.549 150.117 333.679 149.297 332.829C147.067 330.454 145.014 327.917 143.157 325.239C143.036 325.05 142.983 324.825 143.005 324.602C143.027 324.378 143.124 324.169 143.28 324.007C143.436 323.845 143.642 323.741 143.865 323.71C144.087 323.68 144.314 323.725 144.507 323.839C151.018 327.742 157.834 331.113 164.887 333.919C172.971 337.17 181.275 339.843 189.737 341.919C223.479 349.506 258.485 349.506 292.227 341.919C300.694 339.849 309.002 337.176 317.087 333.919C324.121 331.119 330.916 327.755 337.407 323.859Z" stroke="url(#paint5_linear_862_12504)" stroke-width="2.5" stroke-miterlimit="10"/>
<path d="M312.04 235.31C326.455 235.31 338.14 217.782 338.14 196.16C338.14 174.538 326.455 157.01 312.04 157.01C297.626 157.01 285.94 174.538 285.94 196.16C285.94 217.782 297.626 235.31 312.04 235.31Z" fill="url(#paint6_radial_862_12504)"/>
<path d="M312.04 235.31C326.455 235.31 338.14 217.782 338.14 196.16C338.14 174.538 326.455 157.01 312.04 157.01C297.626 157.01 285.94 174.538 285.94 196.16C285.94 217.782 297.626 235.31 312.04 235.31Z" stroke="url(#paint7_linear_862_12504)" stroke-width="2" stroke-miterlimit="10"/>
<path d="M171.1 235.31C185.515 235.31 197.2 217.782 197.2 196.16C197.2 174.538 185.515 157.01 171.1 157.01C156.685 157.01 145 174.538 145 196.16C145 217.782 156.685 235.31 171.1 235.31Z" fill="url(#paint8_radial_862_12504)"/>
<path d="M171.1 235.31C185.515 235.31 197.2 217.782 197.2 196.16C197.2 174.538 185.515 157.01 171.1 157.01C156.685 157.01 145 174.538 145 196.16C145 217.782 156.685 235.31 171.1 235.31Z" stroke="url(#paint9_linear_862_12504)" stroke-width="2" stroke-miterlimit="10"/>
<defs>
<filter id="filter0_f_862_12504" x="-26.8149" y="206.559" width="535.022" height="306.595" filterUnits="userSpaceOnUse" color-interpolation-filters="sRGB">
<feFlood flood-opacity="0" result="BackgroundImageFix"/>
<feBlend mode="normal" in="SourceGraphic" in2="BackgroundImageFix" result="shape"/>
<feGaussianBlur stdDeviation="12.5" result="effect1_foregroundBlur_862_12504"/>
</filter>
<filter id="filter1_f_862_12504" x="-41.8149" y="191.559" width="565.022" height="336.595" filterUnits="userSpaceOnUse" color-interpolation-filters="sRGB">
<feFlood flood-opacity="0" result="BackgroundImageFix"/>
<feBlend mode="normal" in="SourceGraphic" in2="BackgroundImageFix" result="shape"/>
<feGaussianBlur stdDeviation="20" result="effect1_foregroundBlur_862_12504"/>
</filter>
<radialGradient id="paint0_radial_862_12504" cx="0" cy="0" r="1" gradientUnits="userSpaceOnUse" gradientTransform="translate(241) rotate(90) scale(482)">
<stop stop-color="#FFDE43"/>
<stop offset="1" stop-color="#FFBC00"/>
</radialGradient>
<radialGradient id="paint1_radial_862_12504" cx="0" cy="0" r="1" gradientUnits="userSpaceOnUse" gradientTransform="translate(241 64.5) rotate(90) scale(417.5)">
<stop stop-color="white" stop-opacity="0.5"/>
<stop offset="0.782278"/>
</radialGradient>
<radialGradient id="paint2_radial_862_12504" cx="0" cy="0" r="1" gradientUnits="userSpaceOnUse" gradientTransform="translate(241 64.5) rotate(90) scale(417.5)">
<stop stop-color="white" stop-opacity="0.5"/>
<stop offset="0.782278"/>
</radialGradient>
<radialGradient id="paint3_radial_862_12504" cx="0" cy="0" r="1" gradientUnits="userSpaceOnUse" gradientTransform="translate(241 -52.5) rotate(90) scale(534.5 722.835)">
<stop offset="0.0922635" stop-color="white"/>
<stop offset="0.670207" stop-color="white" stop-opacity="0"/>
</radialGradient>
<radialGradient id="paint4_radial_862_12504" cx="0" cy="0" r="1" gradientUnits="userSpaceOnUse" gradientTransform="translate(241.182 345.564) scale(73.9414 44.3645)">
<stop stop-color="#743C1C"/>
<stop offset="1" stop-color="#401C02"/>
</radialGradient>
<linearGradient id="paint5_linear_862_12504" x1="240.957" y1="368.85" x2="240.957" y2="322.288" gradientUnits="userSpaceOnUse">
<stop offset="0.265625" stop-color="#FFDE43"/>
<stop offset="1" stop-color="#F79D14"/>
</linearGradient>
<radialGradient id="paint6_radial_862_12504" cx="0" cy="0" r="1" gradientUnits="userSpaceOnUse" gradientTransform="translate(312.004 196.134) scale(33.2712 39.2179)">
<stop stop-color="#743C1C"/>
<stop offset="1" stop-color="#401C02"/>
</radialGradient>
<linearGradient id="paint7_linear_862_12504" x1="312.04" y1="237.513" x2="312.04" y2="154.49" gradientUnits="userSpaceOnUse">
<stop stop-color="#FFDE43"/>
<stop offset="0.22" stop-color="#FED93F"/>
<stop offset="0.51" stop-color="#FCC934"/>
<stop offset="0.82" stop-color="#F9AF21"/>
<stop offset="1" stop-color="#F79D14"/>
</linearGradient>
<radialGradient id="paint8_radial_862_12504" cx="0" cy="0" r="1" gradientUnits="userSpaceOnUse" gradientTransform="translate(171.064 196.134) scale(33.2712 39.2179)">
<stop stop-color="#743C1C"/>
<stop offset="1" stop-color="#401C02"/>
</radialGradient>
<linearGradient id="paint9_linear_862_12504" x1="171.1" y1="237.513" x2="171.1" y2="154.49" gradientUnits="userSpaceOnUse">
<stop stop-color="#FFDE43"/>
<stop offset="0.22" stop-color="#FED93F"/>
<stop offset="0.51" stop-color="#FCC934"/>
<stop offset="0.82" stop-color="#F9AF21"/>
<stop offset="1" stop-color="#F79D14"/>
</linearGradient>
</defs>
</svg>
