<svg width="58" height="58" viewBox="0 0 58 58" fill="none" xmlns="http://www.w3.org/2000/svg">
<path fill-rule="evenodd" clip-rule="evenodd" d="M28.5716 56.9937C44.0695 56.9937 56.633 44.4302 56.633 28.9322C56.633 13.4343 44.0695 0.870773 28.5716 0.870773C13.0736 0.870773 0.510101 13.4343 0.510101 28.9322C0.510101 35.0852 2.49039 40.7756 5.8484 45.4009C6.02007 45.6373 6.08544 45.9354 6.02205 46.2207L4.63478 52.4634C4.46616 53.2222 5.18979 53.8748 5.92719 53.629L11.5331 51.7604C11.8404 51.658 12.1776 51.7117 12.4425 51.8981C17.0054 55.1086 22.5684 56.9937 28.5716 56.9937Z" fill="#FFCF00"/>
<path d="M11.5331 51.7604L11.375 51.286L11.5331 51.7604ZM12.4425 51.8981L12.7302 51.4892L12.4425 51.8981ZM5.92719 53.629L6.0853 54.1034L5.92719 53.629ZM5.8484 45.4009L5.44379 45.6946L5.8484 45.4009ZM6.02205 46.2207L6.51014 46.3292L6.02205 46.2207ZM56.133 28.9322C56.133 44.154 43.7933 56.4937 28.5716 56.4937V57.4937C44.3456 57.4937 57.133 44.7063 57.133 28.9322H56.133ZM28.5716 1.37077C43.7933 1.37077 56.133 13.7105 56.133 28.9322H57.133C57.133 13.1582 44.3456 0.370773 28.5716 0.370773V1.37077ZM1.0101 28.9322C1.0101 13.7105 13.3498 1.37077 28.5716 1.37077V0.370773C12.7975 0.370773 0.0101013 13.1582 0.0101013 28.9322H1.0101ZM6.25301 45.1071C2.95492 40.5644 1.0101 34.9762 1.0101 28.9322H0.0101013C0.0101013 35.1942 2.02586 40.9868 5.44379 45.6946L6.25301 45.1071ZM5.12287 52.5719L6.51014 46.3292L5.53395 46.1122L4.14668 52.355L5.12287 52.5719ZM11.375 51.286L5.76908 53.1547L6.0853 54.1034L11.6912 52.2347L11.375 51.286ZM28.5716 56.4937C22.6747 56.4937 17.2117 54.6424 12.7302 51.4892L12.1547 52.307C16.7992 55.5749 22.462 57.4937 28.5716 57.4937V56.4937ZM11.6912 52.2347C11.8432 52.1841 12.0155 52.2091 12.1547 52.307L12.7302 51.4892C12.3396 51.2143 11.8376 51.1319 11.375 51.286L11.6912 52.2347ZM4.14668 52.355C3.89375 53.4931 4.9792 54.4721 6.0853 54.1034L5.76908 53.1547C5.40037 53.2776 5.03856 52.9513 5.12287 52.5719L4.14668 52.355ZM5.44379 45.6946C5.53389 45.8187 5.56533 45.9711 5.53395 46.1122L6.51014 46.3292C6.60555 45.8998 6.50626 45.456 6.25301 45.1071L5.44379 45.6946Z" fill="black"/>
<g filter="url(#filter0_f_1_890)">
<ellipse cx="10.9569" cy="31.2246" rx="3.27384" ry="1.40307" transform="rotate(-19.044 10.9569 31.2246)" fill="#FF8B72"/>
</g>
<g filter="url(#filter1_f_1_890)">
<ellipse rx="3.27384" ry="1.40307" transform="matrix(-0.945268 -0.326294 -0.326294 0.945268 47.1846 31.3593)" fill="#FF8B72"/>
</g>
<circle r="5.61229" transform="matrix(-1 0 0 1 17.347 23.3199)" fill="black"/>
<circle r="2.33845" transform="matrix(-1 0 0 1 15.0085 21.9169)" fill="white"/>
<circle r="0.935382" transform="matrix(-1 0 0 1 20.1531 26.1261)" fill="white"/>
<circle cx="41.6669" cy="23.32" r="5.61229" fill="black"/>
<circle cx="44.0054" cy="21.9169" r="2.33845" fill="white"/>
<circle cx="38.8608" cy="26.1261" r="0.935382" fill="white"/>
<path d="M29.5069 46.7045C20.198 46.7045 17.6158 39.3033 15.9713 34.1987C15.7444 33.4944 16.3282 32.8063 17.053 32.9546C20.0754 33.5728 24.8914 34.8118 29.5069 34.8118C33.8867 34.8118 38.4469 34.1424 41.4838 33.3334C42.3071 33.1141 43.1356 33.9181 42.871 34.7279C41.2144 39.7989 38.4988 46.7045 29.5069 46.7045Z" fill="black"/>
<mask id="mask0_1_890" style="mask-type:alpha" maskUnits="userSpaceOnUse" x="15" y="32" width="28" height="15">
<path d="M29.5069 46.7045C20.198 46.7045 17.6158 39.3033 15.9713 34.1987C15.7444 33.4944 16.3282 32.8063 17.053 32.9546C20.0754 33.5728 24.8914 34.8118 29.5069 34.8118C33.8867 34.8118 38.4469 34.1424 41.4838 33.3334C42.3071 33.1141 43.1356 33.9181 42.871 34.7279C41.2144 39.7989 38.4988 46.7045 29.5069 46.7045Z" fill="black"/>
</mask>
<g mask="url(#mask0_1_890)">
<path d="M28.5716 38.2861C22.672 38.2861 19.2128 43.0713 17.8169 45.7252C17.5445 46.243 17.823 46.8632 18.378 47.0482L25.6115 49.4593C25.7135 49.4933 25.8202 49.5106 25.9277 49.5106H31.1186C31.2885 49.5106 31.4557 49.4673 31.6042 49.3848L39.0071 45.2721C39.4553 45.0231 39.646 44.4743 39.3856 44.0326C38.0299 41.7333 34.5565 38.2861 28.5716 38.2861Z" fill="#D50B00"/>
</g>
<defs>
<filter id="filter0_f_1_890" x="6.82816" y="28.5215" width="8.25751" height="5.40608" filterUnits="userSpaceOnUse" color-interpolation-filters="sRGB">
<feFlood flood-opacity="0" result="BackgroundImageFix"/>
<feBlend mode="normal" in="SourceGraphic" in2="BackgroundImageFix" result="shape"/>
<feGaussianBlur stdDeviation="0.5" result="effect1_foregroundBlur_1_890"/>
</filter>
<filter id="filter1_f_1_890" x="43.0559" y="28.6562" width="8.25751" height="5.40608" filterUnits="userSpaceOnUse" color-interpolation-filters="sRGB">
<feFlood flood-opacity="0" result="BackgroundImageFix"/>
<feBlend mode="normal" in="SourceGraphic" in2="BackgroundImageFix" result="shape"/>
<feGaussianBlur stdDeviation="0.5" result="effect1_foregroundBlur_1_890"/>
</filter>
</defs>
</svg>
