<svg width="59" height="59" viewBox="0 0 59 59" fill="none" xmlns="http://www.w3.org/2000/svg">
<path fill-rule="evenodd" clip-rule="evenodd" d="M29.5211 57.6209C45.019 57.6209 57.5825 45.0574 57.5825 29.5595C57.5825 14.0616 45.019 1.49802 29.5211 1.49802C14.0231 1.49802 1.45959 14.0616 1.45959 29.5595C1.45959 35.7124 3.43989 41.4028 6.79789 46.0281C6.96957 46.2646 7.03493 46.5627 6.97154 46.8479L5.58427 53.0907C5.41565 53.8494 6.13928 54.5021 6.87669 54.2563L12.4826 52.3876C12.7899 52.2852 13.1271 52.3389 13.392 52.5253C17.9549 55.7359 23.5179 57.6209 29.5211 57.6209Z" fill="#FFCF00"/>
<path d="M12.4826 52.3876L12.6407 52.862L12.4826 52.3876ZM13.392 52.5253L13.6797 52.1164L13.392 52.5253ZM5.58427 53.0907L6.07236 53.1991L5.58427 53.0907ZM6.87669 54.2563L6.71857 53.7819L6.87669 54.2563ZM6.79789 46.0281L6.39328 46.3219L6.79789 46.0281ZM6.97154 46.8479L6.48345 46.7395L6.97154 46.8479ZM57.0825 29.5595C57.0825 44.7813 44.7428 57.1209 29.5211 57.1209V58.1209C45.2951 58.1209 58.0825 45.3335 58.0825 29.5595H57.0825ZM29.5211 1.99802C44.7428 1.99802 57.0825 14.3377 57.0825 29.5595H58.0825C58.0825 13.7854 45.2951 0.998016 29.5211 0.998016V1.99802ZM1.95959 29.5595C1.95959 14.3377 14.2993 1.99802 29.5211 1.99802V0.998016C13.747 0.998016 0.959595 13.7854 0.959595 29.5595H1.95959ZM7.20251 45.7344C3.90442 41.1916 1.95959 35.6034 1.95959 29.5595H0.959595C0.959595 35.8214 2.97536 41.614 6.39328 46.3219L7.20251 45.7344ZM6.07236 53.1991L7.45964 46.9564L6.48345 46.7395L5.09618 52.9822L6.07236 53.1991ZM12.3245 51.9133L6.71857 53.7819L7.0348 54.7306L12.6407 52.862L12.3245 51.9133ZM29.5211 57.1209C23.6242 57.1209 18.1612 55.2696 13.6797 52.1164L13.1042 52.9342C17.7487 56.2021 23.4115 58.1209 29.5211 58.1209V57.1209ZM12.6407 52.862C12.7927 52.8113 12.965 52.8363 13.1042 52.9342L13.6797 52.1164C13.2891 51.8416 12.787 51.7591 12.3245 51.9133L12.6407 52.862ZM5.09618 52.9822C4.84325 54.1204 5.92869 55.0993 7.0348 54.7306L6.71857 53.7819C6.34987 53.9048 5.98806 53.5785 6.07236 53.1991L5.09618 52.9822ZM6.39328 46.3219C6.48338 46.446 6.51482 46.5983 6.48345 46.7395L7.45964 46.9564C7.55504 46.5271 7.45576 46.0832 7.20251 45.7344L6.39328 46.3219Z" fill="black"/>
<g filter="url(#filter0_f_1_1154)">
<ellipse cx="10.3599" cy="38.4788" rx="3.27384" ry="1.40307" transform="rotate(-0.584789 10.3599 38.4788)" fill="#FF8B72"/>
</g>
<g filter="url(#filter1_f_1_1154)">
<ellipse cx="47.7752" cy="38.4788" rx="3.27384" ry="1.40307" transform="rotate(-0.584789 47.7752 38.4788)" fill="#FF8B72"/>
</g>
<path d="M18.2965 19.2703C17.6729 20.5175 15.4903 23.1989 11.7488 23.9472" stroke="black" stroke-linecap="round"/>
<path d="M40.7456 19.2703C41.3692 20.5175 43.5518 23.1989 47.2933 23.9472" stroke="black" stroke-linecap="round"/>
<path d="M11.7488 30.4949C13.9314 32.9892 19.4189 36.2942 23.9088 29.5595" stroke="black" stroke-width="1.5" stroke-linecap="round"/>
<path d="M47.2933 30.4949C45.1107 32.9892 39.6232 36.2942 35.1333 29.5595" stroke="black" stroke-width="1.5" stroke-linecap="round"/>
<path d="M24.8441 45.461H35.1333" stroke="black" stroke-width="1.5" stroke-linecap="round"/>
<defs>
<filter id="filter0_f_1_1154" x="6.08618" y="36.0754" width="8.54739" height="4.80681" filterUnits="userSpaceOnUse" color-interpolation-filters="sRGB">
<feFlood flood-opacity="0" result="BackgroundImageFix"/>
<feBlend mode="normal" in="SourceGraphic" in2="BackgroundImageFix" result="shape"/>
<feGaussianBlur stdDeviation="0.5" result="effect1_foregroundBlur_1_1154"/>
</filter>
<filter id="filter1_f_1_1154" x="43.5015" y="36.0754" width="8.54739" height="4.80681" filterUnits="userSpaceOnUse" color-interpolation-filters="sRGB">
<feFlood flood-opacity="0" result="BackgroundImageFix"/>
<feBlend mode="normal" in="SourceGraphic" in2="BackgroundImageFix" result="shape"/>
<feGaussianBlur stdDeviation="0.5" result="effect1_foregroundBlur_1_1154"/>
</filter>
</defs>
</svg>
