<svg width="58" height="58" viewBox="0 0 58 58" fill="none" xmlns="http://www.w3.org/2000/svg">
<path fill-rule="evenodd" clip-rule="evenodd" d="M28.8008 57.1709C44.2988 57.1709 56.8623 44.6074 56.8623 29.1094C56.8623 13.6115 44.2988 1.04797 28.8008 1.04797C13.3029 1.04797 0.73938 13.6115 0.73938 29.1094C0.73938 35.2624 2.71967 40.9528 6.07767 45.5781C6.24934 45.8145 6.3147 46.1126 6.25132 46.3979L4.86405 52.6406C4.69543 53.3994 5.41905 54.052 6.15646 53.8062L11.7624 51.9376C12.0696 51.8351 12.4068 51.8889 12.6717 52.0753C17.2347 55.2858 22.7976 57.1709 28.8008 57.1709Z" fill="#FFCF00"/>
<path d="M11.7624 51.9376L11.6042 51.4632L11.7624 51.9376ZM12.6717 52.0753L12.9594 51.6663L12.6717 52.0753ZM6.15646 53.8062L5.99835 53.3319L6.15646 53.8062ZM6.07767 45.5781L6.48228 45.2843L6.07767 45.5781ZM6.25132 46.3979L6.73941 46.5063L6.25132 46.3979ZM56.3623 29.1094C56.3623 44.3312 44.0226 56.6709 28.8008 56.6709V57.6709C44.5749 57.6709 57.3623 44.8835 57.3623 29.1094H56.3623ZM28.8008 1.54797C44.0226 1.54797 56.3623 13.8877 56.3623 29.1094H57.3623C57.3623 13.3354 44.5749 0.547974 28.8008 0.547974V1.54797ZM1.23938 29.1094C1.23938 13.8877 13.5791 1.54797 28.8008 1.54797V0.547974C13.0268 0.547974 0.23938 13.3354 0.23938 29.1094H1.23938ZM6.48228 45.2843C3.1842 40.7415 1.23938 35.1533 1.23938 29.1094H0.23938C0.23938 35.3714 2.25514 41.164 5.67306 45.8718L6.48228 45.2843ZM5.35214 52.7491L6.73941 46.5063L5.76322 46.2894L4.37595 52.5321L5.35214 52.7491ZM11.6042 51.4632L5.99835 53.3319L6.31457 54.2805L11.9205 52.4119L11.6042 51.4632ZM28.8008 56.6709C22.9039 56.6709 17.4409 54.8195 12.9594 51.6663L12.384 52.4842C17.0285 55.7521 22.6913 57.6709 28.8008 57.6709V56.6709ZM11.9205 52.4119C12.0725 52.3612 12.2448 52.3862 12.384 52.4842L12.9594 51.6663C12.5688 51.3915 12.0668 51.309 11.6042 51.4632L11.9205 52.4119ZM4.37595 52.5321C4.12303 53.6703 5.20847 54.6492 6.31457 54.2805L5.99835 53.3319C5.62964 53.4548 5.26783 53.1284 5.35214 52.7491L4.37595 52.5321ZM5.67306 45.8718C5.76315 45.9959 5.79459 46.1482 5.76322 46.2894L6.73941 46.5063C6.83482 46.077 6.73553 45.6331 6.48228 45.2843L5.67306 45.8718Z" fill="black"/>
<g filter="url(#filter0_f_3_313)">
<ellipse cx="46.5731" cy="30.9802" rx="2.80615" ry="1.87076" fill="#FF8B72"/>
</g>
<g filter="url(#filter1_f_3_313)">
<ellipse cx="11.0286" cy="30.9802" rx="2.80615" ry="1.87076" fill="#FF8B72"/>
</g>
<path d="M19.447 37.5279H39.09" stroke="black" stroke-width="2" stroke-linecap="round"/>
<ellipse cx="17.0726" cy="24.4153" rx="3.70509" ry="4.53363" fill="black"/>
<ellipse cx="40.0621" cy="24.4153" rx="3.70509" ry="4.53363" fill="black"/>
<defs>
<filter id="filter0_f_3_313" x="42.767" y="28.1094" width="7.61229" height="5.74152" filterUnits="userSpaceOnUse" color-interpolation-filters="sRGB">
<feFlood flood-opacity="0" result="BackgroundImageFix"/>
<feBlend mode="normal" in="SourceGraphic" in2="BackgroundImageFix" result="shape"/>
<feGaussianBlur stdDeviation="0.5" result="effect1_foregroundBlur_3_313"/>
</filter>
<filter id="filter1_f_3_313" x="7.22244" y="28.1094" width="7.61229" height="5.74152" filterUnits="userSpaceOnUse" color-interpolation-filters="sRGB">
<feFlood flood-opacity="0" result="BackgroundImageFix"/>
<feBlend mode="normal" in="SourceGraphic" in2="BackgroundImageFix" result="shape"/>
<feGaussianBlur stdDeviation="0.5" result="effect1_foregroundBlur_3_313"/>
</filter>
</defs>
</svg>
