<svg width="65" height="61" viewBox="0 0 65 61" fill="none" xmlns="http://www.w3.org/2000/svg">
<path fill-rule="evenodd" clip-rule="evenodd" d="M31.3963 60.1709C46.8942 60.1709 59.4578 47.6074 59.4578 32.1095C59.4578 16.6115 46.8942 4.04799 31.3963 4.04799C15.8984 4.04799 3.33487 16.6115 3.33487 32.1095C3.33487 38.2624 5.31516 43.9528 8.67317 48.5781C8.84484 48.8146 8.9102 49.1127 8.84681 49.3979L7.45955 55.6406C7.29093 56.3994 8.01456 57.052 8.75196 56.8062L14.3579 54.9376C14.6651 54.8352 15.0023 54.8889 15.2672 55.0753C19.8302 58.2858 25.3931 60.1709 31.3963 60.1709Z" fill="#FFCF00"/>
<path d="M14.3579 54.9376L14.1997 54.4632L14.3579 54.9376ZM15.2672 55.0753L15.5549 54.6664L15.2672 55.0753ZM7.45955 55.6406L6.97146 55.5321L7.45955 55.6406ZM8.75196 56.8062L8.91008 57.2806L8.75196 56.8062ZM8.67317 48.5781L8.26856 48.8718L8.67317 48.5781ZM8.84681 49.3979L8.35872 49.2894L8.84681 49.3979ZM58.9578 32.1095C58.9578 47.3312 46.6181 59.6709 31.3963 59.6709V60.6709C47.1704 60.6709 59.9578 47.8835 59.9578 32.1095H58.9578ZM31.3963 4.54799C46.6181 4.54799 58.9578 16.8877 58.9578 32.1095H59.9578C59.9578 16.3354 47.1704 3.54799 31.3963 3.54799V4.54799ZM3.83487 32.1095C3.83487 16.8877 16.1746 4.54799 31.3963 4.54799V3.54799C15.6223 3.54799 2.83487 16.3354 2.83487 32.1095H3.83487ZM9.07778 48.2843C5.77969 43.7416 3.83487 38.1534 3.83487 32.1095H2.83487C2.83487 38.3714 4.85063 44.164 8.26856 48.8718L9.07778 48.2843ZM7.94764 55.7491L9.33491 49.5064L8.35872 49.2894L6.97146 55.5321L7.94764 55.7491ZM14.1997 54.4632L8.59385 56.3319L8.91008 57.2806L14.516 55.4119L14.1997 54.4632ZM31.3963 59.6709C25.4994 59.6709 20.0364 57.8196 15.5549 54.6664L14.9795 55.4842C19.624 58.7521 25.2868 60.6709 31.3963 60.6709V59.6709ZM14.516 55.4119C14.668 55.3613 14.8403 55.3863 14.9795 55.4842L15.5549 54.6664C15.1643 54.3915 14.6623 54.3091 14.1997 54.4632L14.516 55.4119ZM6.97146 55.5321C6.71853 56.6703 7.80397 57.6493 8.91008 57.2806L8.59385 56.3319C8.22515 56.4548 7.86333 56.1285 7.94764 55.7491L6.97146 55.5321ZM8.26856 48.8718C8.35865 48.9959 8.39009 49.1483 8.35872 49.2894L9.33491 49.5064C9.43031 49.077 9.33103 48.6332 9.07778 48.2843L8.26856 48.8718Z" fill="black"/>
<g filter="url(#filter0_f_3_273)">
<ellipse cx="50.906" cy="34.7005" rx="2.80615" ry="1.40307" fill="#FF8C71"/>
</g>
<g filter="url(#filter1_f_3_273)">
<ellipse cx="13.9429" cy="34.7005" rx="2.80615" ry="1.40307" fill="#FF8D6E"/>
</g>
<path d="M14.1627 6.1288C14.282 5.28916 15.3265 4.96976 15.8949 5.59916L21.2912 11.5745C21.5171 11.8246 21.8538 11.9441 22.1868 11.8924L29.4381 10.7663C30.2605 10.6386 30.8699 11.5128 30.4656 12.2403L26.6672 19.0739C26.5167 19.3447 26.5002 19.67 26.6226 19.9547L29.6396 26.9726C29.9672 27.7345 29.2783 28.5411 28.4745 28.3367L21.2751 26.5062C20.9446 26.4221 20.594 26.5123 20.3451 26.7454L14.5855 32.1389C13.9651 32.7199 12.9487 32.311 12.9034 31.4623L12.4863 23.6479C12.4677 23.3 12.2695 22.9869 11.963 22.8213L5.09322 19.1104C4.34638 18.707 4.41012 17.6152 5.19883 17.3014L12.479 14.4051C12.8123 14.2725 13.049 13.9716 13.0994 13.6165L14.1627 6.1288Z" fill="#FEDF42" stroke="black" stroke-width="0.5"/>
<path d="M14.5715 6.57819C14.658 5.99625 15.3803 5.77413 15.7788 6.20691L21.1524 12.0419C21.3772 12.2859 21.7084 12.4026 22.0365 12.3534L29.1436 11.2861C29.7168 11.2001 30.1403 11.8082 29.8607 12.316L26.1463 19.0628C25.9976 19.3329 25.9818 19.6565 26.1035 19.9398L28.3813 25.2415C28.7348 26.0643 27.9116 26.9013 27.083 26.5615L21.6436 24.3306C21.2797 24.1814 20.8622 24.2593 20.5766 24.5297L15.5061 29.3304C14.8817 29.9216 13.8517 29.5012 13.8193 28.6419L13.5595 21.7366C13.5433 21.3066 13.2539 20.9352 12.8409 20.8144L6.88393 19.0723C5.97712 18.8072 5.90989 17.5483 6.78331 17.1881L12.8758 14.6751C13.2011 14.541 13.4319 14.2457 13.4836 13.8977L14.5715 6.57819Z" fill="#FEFFB4"/>
<path d="M51.2406 5.80867C51.1214 4.96903 50.0768 4.64964 49.5084 5.27903L44.1121 11.2544C43.8862 11.5045 43.5495 11.624 43.2165 11.5723L35.9653 10.4462C35.1428 10.3185 34.5334 11.1927 34.9377 11.9202L38.7361 18.7538C38.8866 19.0246 38.9031 19.3499 38.7807 19.6346L35.7637 26.6525C35.4361 27.4144 36.125 28.221 36.9288 28.0166L44.1282 26.186C44.4587 26.102 44.8093 26.1922 45.0582 26.4253L50.8178 31.8188C51.4382 32.3998 52.4546 31.9909 52.4999 31.1422L52.917 23.3278C52.9356 22.9799 53.1338 22.6668 53.4403 22.5012L60.3101 18.7903C61.0569 18.3869 60.9932 17.2951 60.2045 16.9813L52.9243 14.0849C52.591 13.9523 52.3543 13.6514 52.3039 13.2964L51.2406 5.80867Z" fill="#FEDF42" stroke="black" stroke-width="0.5"/>
<path d="M50.8318 6.25803C50.7453 5.67609 50.023 5.45397 49.6244 5.88675L44.2509 11.7217C44.0261 11.9658 43.6949 12.0825 43.3668 12.0332L36.2597 10.966C35.6865 10.8799 35.263 11.488 35.5426 11.9958L39.257 18.7427C39.4057 19.0128 39.4215 19.3364 39.2998 19.6197L37.022 24.9214C36.6685 25.7442 37.4917 26.5811 38.3202 26.2413L43.7597 24.0105C44.1236 23.8612 44.5411 23.9391 44.8267 24.2095L49.8971 29.0102C50.5216 29.6015 51.5516 29.181 51.584 28.3217L51.8438 21.4164C51.86 20.9864 52.1494 20.615 52.5624 20.4942L58.5194 18.7522C59.4262 18.487 59.4934 17.2282 58.62 16.8679L52.5275 14.355C52.2022 14.2208 51.9714 13.9256 51.9197 13.5776L50.8318 6.25803Z" fill="#FEFFB4"/>
<path d="M32.3851 53.2117C45.4804 53.2117 48.2871 35.4395 45.4804 34.504C42.6737 33.5686 39.8681 36.3748 32.3851 36.3748C24.902 36.3748 22.0959 32.6333 19.2897 34.504C16.4836 36.3748 19.2897 53.2117 32.3851 53.2117Z" fill="black"/>
<path d="M32.3317 44.2694C26.7194 44.2694 23.9133 45.2048 23.9133 46.1402C23.9133 47.0756 24.8487 51.7525 32.3317 51.7525C39.8148 51.7525 40.7501 47.0756 40.7501 46.1402C40.7501 45.2048 37.944 44.2694 32.3317 44.2694Z" fill="#D50B00"/>
<path d="M32.3324 37.7214C26.7201 37.7214 19.2369 33.0446 19.2366 35.851C19.2363 38.6574 18.3023 41.4627 32.3324 41.463C46.3624 41.4633 45.4277 38.6567 45.4277 35.8506C45.4277 33.0445 37.9447 37.7214 32.3324 37.7214Z" fill="white"/>
<defs>
<filter id="filter0_f_3_273" x="47.5998" y="32.7974" width="6.61229" height="3.80615" filterUnits="userSpaceOnUse" color-interpolation-filters="sRGB">
<feFlood flood-opacity="0" result="BackgroundImageFix"/>
<feBlend mode="normal" in="SourceGraphic" in2="BackgroundImageFix" result="shape"/>
<feGaussianBlur stdDeviation="0.25" result="effect1_foregroundBlur_3_273"/>
</filter>
<filter id="filter1_f_3_273" x="10.6367" y="32.7974" width="6.61229" height="3.80615" filterUnits="userSpaceOnUse" color-interpolation-filters="sRGB">
<feFlood flood-opacity="0" result="BackgroundImageFix"/>
<feBlend mode="normal" in="SourceGraphic" in2="BackgroundImageFix" result="shape"/>
<feGaussianBlur stdDeviation="0.25" result="effect1_foregroundBlur_3_273"/>
</filter>
</defs>
</svg>
