<svg width="513" height="483" viewBox="0 0 513 483" fill="none" xmlns="http://www.w3.org/2000/svg">
<path d="M256.18 482.36C389.38 482.36 497.36 374.38 497.36 241.18C497.36 107.98 389.38 0 256.18 0C122.98 0 15 107.98 15 241.18C15 374.38 122.98 482.36 256.18 482.36Z" fill="url(#paint0_radial_862_12512)"/>
<g style="mix-blend-mode:soft-light">
<path d="M256.18 482.36C389.38 482.36 497.36 374.38 497.36 241.18C497.36 107.98 389.38 0 256.18 0C122.98 0 15 107.98 15 241.18C15 374.38 122.98 482.36 256.18 482.36Z" fill="url(#paint1_radial_862_12512)"/>
</g>
<g style="mix-blend-mode:soft-light">
<path d="M256.18 482.36C389.38 482.36 497.36 374.38 497.36 241.18C497.36 107.98 389.38 0 256.18 0C122.98 0 15 107.98 15 241.18C15 374.38 122.98 482.36 256.18 482.36Z" fill="url(#paint2_radial_862_12512)"/>
</g>
<g style="mix-blend-mode:overlay">
<path d="M256.18 482.36C389.38 482.36 497.36 374.38 497.36 241.18C497.36 107.98 389.38 0 256.18 0C122.98 0 15 107.98 15 241.18C15 374.38 122.98 482.36 256.18 482.36Z" fill="url(#paint3_radial_862_12512)" fill-opacity="0.7"/>
</g>
<mask id="mask0_862_12512" style="mask-type:alpha" maskUnits="userSpaceOnUse" x="15" y="0" width="483" height="483">
<path d="M256.18 482.36C389.38 482.36 497.36 374.38 497.36 241.18C497.36 107.98 389.38 0 256.18 0C122.98 0 15 107.98 15 241.18C15 374.38 122.98 482.36 256.18 482.36Z" fill="white"/>
</mask>
<g mask="url(#mask0_862_12512)">
<g filter="url(#filter0_f_862_12512)">
<path d="M13.6241 234.299C13.886 230.872 15.0137 230.529 15.3426 234.008C15.7081 237.874 14.9977 245.646 15.1687 250.335C15.6216 262.748 17.5244 273.541 19.486 282.32C25.8075 310.612 34.5617 328.843 42.7268 344.288C69.5663 395.06 98.9667 420.77 127.648 440.147C169.689 468.549 212.072 477.584 254.49 479.5C255.56 479.548 255.738 486.518 254.686 487.425C252.788 489.061 250.436 487.437 248.494 487.369C242.915 487.174 237.335 486.791 231.756 486.211C215.213 484.492 198.67 480.991 182.162 475.358C137.275 460.044 88.8765 433.821 46.6092 359.962C43.9502 355.316 41.3124 350.424 38.7118 345.167C36.6321 340.963 34.5726 336.556 32.5493 331.843C25.8946 316.342 10.3868 276.658 13.6241 234.299ZM254.52 487.5C253.499 487.531 253.241 481.034 254.214 479.685C255.684 477.647 257.888 479.326 259.439 479.229C265.877 478.826 272.314 478.229 278.75 477.421C296.395 475.205 314.028 471.422 331.621 465.596C375.257 451.145 422.17 429.115 463.305 361.431C465.923 357.123 468.518 352.553 471.079 347.641C478.86 332.712 498.361 293.084 496.107 243.821C495.917 239.668 497.181 237.181 497.747 240.743C498.467 245.279 498.175 254.736 497.977 259.768C497.341 275.883 494.866 289.512 492.257 300.518C483.987 335.399 472.376 355.623 461.744 372.51C427.184 427.397 389.648 449.524 353.155 465.424C320.424 479.686 287.444 486.484 254.52 487.5Z" fill="#401C02"/>
</g>
<g filter="url(#filter1_f_862_12512)">
<path d="M13.6241 234.299C13.886 230.872 15.0137 230.529 15.3426 234.008C15.7081 237.874 14.9977 245.646 15.1687 250.335C15.6216 262.748 17.5244 273.541 19.486 282.32C25.8075 310.612 34.5617 328.843 42.7268 344.288C69.5663 395.06 98.9667 420.77 127.648 440.147C169.689 468.549 212.072 477.584 254.49 479.5C255.56 479.548 255.738 486.518 254.686 487.425C252.788 489.061 250.436 487.437 248.494 487.369C242.915 487.174 237.335 486.791 231.756 486.211C215.213 484.492 198.67 480.991 182.162 475.358C137.275 460.044 88.8765 433.821 46.6092 359.962C43.9502 355.316 41.3124 350.424 38.7118 345.167C36.6321 340.963 34.5726 336.556 32.5493 331.843C25.8946 316.342 10.3868 276.658 13.6241 234.299ZM254.52 487.5C253.499 487.531 253.241 481.034 254.214 479.685C255.684 477.647 257.888 479.326 259.439 479.229C265.877 478.826 272.314 478.229 278.75 477.421C296.395 475.205 314.028 471.422 331.621 465.596C375.257 451.145 422.17 429.115 463.305 361.431C465.923 357.123 468.518 352.553 471.079 347.641C478.86 332.712 498.361 293.084 496.107 243.821C495.917 239.668 497.181 237.181 497.747 240.743C498.467 245.279 498.175 254.736 497.977 259.768C497.341 275.883 494.866 289.512 492.257 300.518C483.987 335.399 472.376 355.623 461.744 372.51C427.184 427.397 389.648 449.524 353.155 465.424C320.424 479.686 287.444 486.484 254.52 487.5Z" fill="#401C02"/>
</g>
</g>
<path d="M415.45 315.38C400.92 345.252 378.281 370.436 350.119 388.055C321.958 405.673 289.409 415.016 256.19 415.016C222.971 415.016 190.422 405.673 162.26 388.055C134.098 370.436 111.46 345.252 96.9297 315.38C143.38 331.6 197.93 340.94 256.19 340.94C314.45 340.94 369 331.6 415.45 315.38Z" fill="url(#paint4_linear_862_12512)"/>
<path d="M430.51 269C430.33 270 430.14 271 429.94 272.05C429.74 273.1 429.58 273.89 429.38 274.8C429.38 274.98 429.31 275.15 429.27 275.32C429.08 276.25 428.87 277.17 428.66 278.09C428.45 279.01 428.26 279.76 428.05 280.59C427.93 281.09 427.81 281.59 427.67 282.09C427.62 282.31 427.56 282.54 427.5 282.76C427.37 283.28 427.23 283.76 427.09 284.31C427.09 284.51 426.99 284.71 426.93 284.91C426.737 285.617 426.537 286.327 426.33 287.04C426.06 288.04 425.77 288.96 425.48 289.92V289.98C425.2 290.88 424.92 291.79 424.62 292.69C423.97 294.69 423.29 296.69 422.62 298.69C422.27 299.69 421.91 300.6 421.55 301.54C421.19 302.48 420.93 303.14 420.61 303.94C420.13 305.14 419.61 306.33 419.13 307.51C418.8 308.29 418.46 309.07 418.13 309.84L418.08 309.94C417.75 310.69 417.41 311.43 417.08 312.17L416.54 313.33C416.21 314.03 415.88 314.73 415.54 315.42C369.09 331.64 314.54 340.98 256.28 340.98C198.02 340.98 143.47 331.64 97.02 315.42C96.68 314.73 96.35 314.03 96.02 313.33L95.48 312.17C95.14 311.43 94.8 310.69 94.48 309.94L94.43 309.84C94.09 309.07 93.75 308.29 93.43 307.51C92.92 306.33 92.43 305.14 91.95 303.94C91.63 303.14 91.32 302.34 91.01 301.54C90.7 300.74 90.29 299.65 89.94 298.69C89.22 296.69 88.54 294.74 87.89 292.69C87.59 291.79 87.31 290.88 87.03 289.98V289.92C86.74 288.92 86.45 288 86.18 287.04C85.9667 286.333 85.7667 285.623 85.58 284.91C85.52 284.71 85.47 284.51 85.42 284.31C85.28 283.8 85.14 283.31 85.01 282.76C84.95 282.54 84.89 282.31 84.84 282.09C84.7 281.59 84.58 281.09 84.46 280.59C84.25 279.76 84.05 278.92 83.85 278.09C83.65 277.26 83.43 276.25 83.24 275.32C83.24 275.15 83.16 274.98 83.13 274.8C82.93 273.89 82.75 272.97 82.57 272.05C82.39 271.13 82.18 270.05 82 269C131.54 288.65 191.6 300.16 256.32 300.16C321.04 300.16 380.97 288.65 430.51 269Z" fill="url(#paint5_linear_862_12512)"/>
<path d="M415.45 315.38C369 331.6 314.45 340.94 256.19 340.94C197.93 340.94 143.38 331.6 96.9297 315.38" stroke="url(#paint6_radial_862_12512)" stroke-width="6" stroke-miterlimit="10"/>
<mask id="mask1_862_12512" style="mask-type:alpha" maskUnits="userSpaceOnUse" x="82" y="269" width="348" height="146">
<path d="M424.969 270.15C425.521 269.94 426.119 269.883 426.701 269.983C427.283 270.084 427.827 270.34 428.276 270.723C428.725 271.107 429.063 271.604 429.253 272.163C429.444 272.722 429.48 273.322 429.359 273.9C420.897 313.55 399.084 349.095 367.566 374.597C336.048 400.098 296.732 414.012 256.189 414.012C215.646 414.012 176.331 400.098 144.813 374.597C113.294 349.095 91.4815 313.55 83.0192 273.9C82.898 273.322 82.9347 272.722 83.1253 272.163C83.3158 271.604 83.6533 271.107 84.1023 270.723C84.5514 270.34 85.0953 270.084 85.6772 269.983C86.259 269.883 86.8573 269.94 87.4092 270.15C135.859 288.49 193.859 299.15 256.189 299.15C318.519 299.15 376.519 288.49 424.969 270.15Z" fill="url(#paint7_linear_862_12512)"/>
</mask>
<g mask="url(#mask1_862_12512)">
<g filter="url(#filter2_f_862_12512)">
<path d="M424.969 270.15C425.521 269.94 426.119 269.883 426.701 269.983C427.283 270.084 427.827 270.34 428.276 270.723C428.725 271.107 429.063 271.604 429.253 272.163C429.444 272.722 429.48 273.322 429.359 273.9C420.897 313.55 399.084 349.095 367.566 374.597C336.047 400.098 296.732 414.012 256.189 414.012C215.646 414.012 176.331 400.098 144.813 374.597C113.294 349.095 91.4815 313.55 83.0192 273.9C82.898 273.322 82.9347 272.722 83.1253 272.163C83.3158 271.604 83.6533 271.107 84.1023 270.723C84.5514 270.34 85.0953 270.084 85.6772 269.983C86.259 269.883 86.8573 269.94 87.4092 270.15C135.859 288.49 193.859 299.15 256.189 299.15C318.519 299.15 376.519 288.49 424.969 270.15Z" stroke="url(#paint8_linear_862_12512)" stroke-width="12" stroke-miterlimit="10"/>
</g>
</g>
<path d="M434.006 275.883L434.005 275.892C425.315 316.605 402.918 353.104 370.554 379.29C338.19 405.475 297.82 419.762 256.189 419.762C214.559 419.762 174.189 405.475 141.825 379.29C109.461 353.104 87.0631 316.605 78.3738 275.892L78.372 275.883L78.3703 275.875C78.0742 274.462 78.1637 272.996 78.6294 271.63M434.006 275.883L78.6294 271.63M434.006 275.883L434.008 275.875M434.006 275.883L434.008 275.875M78.6294 271.63C79.0951 270.265 79.9199 269.049 81.0172 268.112C82.1145 267.174 83.4439 266.55 84.8657 266.303C86.2859 266.057 87.7462 266.197 89.0938 266.709M78.6294 271.63L89.0938 266.709M434.008 275.875C434.304 274.462 434.215 272.996 433.749 271.63C433.283 270.264 432.458 269.049 431.361 268.112C430.264 267.174 428.935 266.55 427.513 266.303C426.091 266.057 424.629 266.197 423.28 266.711C375.415 284.828 317.993 295.4 256.189 295.4C194.384 295.4 136.96 284.827 89.0938 266.709M434.008 275.875L89.0938 266.709" stroke="url(#paint9_linear_862_12512)" stroke-width="9.5" stroke-miterlimit="10"/>
<path d="M424.969 271.151C425.521 270.941 426.119 270.883 426.701 270.984C427.283 271.085 427.827 271.34 428.276 271.724C428.725 272.108 429.063 272.605 429.253 273.164C429.444 273.723 429.48 274.323 429.359 274.901C420.897 314.551 399.084 350.096 367.566 375.597C336.047 401.099 296.732 415.012 256.189 415.012C215.646 415.012 176.331 401.099 144.813 375.597C113.294 350.096 91.4815 314.551 83.0192 274.901C82.898 274.323 82.9347 273.723 83.1253 273.164C83.3158 272.605 83.6533 272.108 84.1023 271.724C84.5514 271.34 85.0953 271.085 85.6772 270.984C86.259 270.883 86.8573 270.941 87.4092 271.151C135.859 289.491 193.859 300.151 256.189 300.151C318.519 300.151 376.519 289.491 424.969 271.151Z" stroke="url(#paint10_linear_862_12512)" stroke-width="12" stroke-miterlimit="10"/>
<mask id="mask2_862_12512" style="mask-type:alpha" maskUnits="userSpaceOnUse" x="15" y="0" width="483" height="483">
<path d="M256.18 482.36C389.38 482.36 497.36 374.38 497.36 241.18C497.36 107.98 389.38 0 256.18 0C122.98 0 15 107.98 15 241.18C15 374.38 122.98 482.36 256.18 482.36Z" fill="url(#paint11_radial_862_12512)"/>
</mask>
<g mask="url(#mask2_862_12512)">
<g filter="url(#filter3_f_862_12512)">
<path d="M128.354 46.2169L165.556 103.093L233.086 94.993C243.312 93.7604 249.924 105.558 243.4 113.658L200.732 166.572L229.295 228.291C233.615 237.624 224.358 247.573 214.749 243.875L151.187 219.751L101.289 265.886C93.7076 272.929 81.4536 267.206 81.9826 256.905L85.3326 189.024L25.914 155.919C16.9219 150.901 18.5087 137.43 28.4706 134.789L94.1484 117.004L107.372 50.3549C109.4 40.1418 122.712 37.5886 128.354 46.2169Z" fill="#743C1C"/>
</g>
</g>
<path d="M122.908 15.9204L165.108 80.5204L241.708 71.3204C253.308 69.9204 260.808 83.3204 253.408 92.5204L205.008 152.62L237.408 222.72C242.308 233.32 231.808 244.62 220.908 240.42L148.808 213.02L92.2084 265.42C83.6084 273.42 69.7084 266.92 70.3084 255.22L74.1084 178.12L6.70842 140.52C-3.49158 134.82 -1.69158 119.52 9.60842 116.52L84.1084 96.3204L99.1084 20.6204C101.408 9.02042 116.508 6.12042 122.908 15.9204Z" fill="url(#paint12_linear_862_12512)"/>
<g style="mix-blend-mode:overlay">
<path d="M122.908 15.9204L165.108 80.5204L241.708 71.3204C253.308 69.9204 260.808 83.3204 253.408 92.5204L205.008 152.62L237.408 222.72C242.308 233.32 231.808 244.62 220.908 240.42L148.808 213.02L92.2084 265.42C83.6084 273.42 69.7084 266.92 70.3084 255.22L74.1084 178.12L6.70842 140.52C-3.49158 134.82 -1.69158 119.52 9.60842 116.52L84.1084 96.3204L99.1084 20.6204C101.408 9.02042 116.508 6.12042 122.908 15.9204Z" fill="url(#paint13_radial_862_12512)"/>
</g>
<mask id="mask3_862_12512" style="mask-type:alpha" maskUnits="userSpaceOnUse" x="0" y="9" width="257" height="260">
<path d="M122.908 15.9204L165.108 80.5204L241.708 71.3204C253.308 69.9204 260.808 83.3204 253.408 92.5204L205.008 152.62L237.408 222.72C242.308 233.32 231.808 244.62 220.908 240.42L148.808 213.02L92.2084 265.42C83.6084 273.42 69.7084 266.92 70.3084 255.22L74.1084 178.12L6.70842 140.52C-3.49158 134.82 -1.69158 119.52 9.60842 116.52L84.1084 96.3204L99.1084 20.6204C101.408 9.02042 116.508 6.12042 122.908 15.9204Z" fill="#FFA300"/>
</mask>
<g mask="url(#mask3_862_12512)">
<g filter="url(#filter4_f_862_12512)">
<path d="M122.908 15.9204L165.108 80.5204L241.708 71.3204C253.308 69.9204 260.808 83.3204 253.408 92.5204L205.008 152.62L237.408 222.72C242.308 233.32 231.808 244.62 220.908 240.42L148.808 213.02L92.2084 265.42C83.6084 273.42 69.7084 266.92 70.3084 255.22L74.1084 178.12L6.70842 140.52C-3.49158 134.82 -1.69158 119.52 9.60842 116.52L84.1084 96.3204L99.1084 20.6204C101.408 9.02042 116.508 6.12042 122.908 15.9204Z" stroke="#FFA300" stroke-width="7" stroke-miterlimit="10"/>
</g>
</g>
<mask id="mask4_862_12512" style="mask-type:alpha" maskUnits="userSpaceOnUse" x="0" y="9" width="257" height="260">
<path d="M122.908 15.9204L165.108 80.5204L241.708 71.3204C253.308 69.9204 260.808 83.3204 253.408 92.5204L205.008 152.62L237.408 222.72C242.308 233.32 231.808 244.62 220.908 240.42L148.808 213.02L92.2084 265.42C83.6084 273.42 69.7084 266.92 70.3084 255.22L74.1084 178.12L6.70842 140.52C-3.49158 134.82 -1.69158 119.52 9.60842 116.52L84.1084 96.3204L99.1084 20.6204C101.408 9.02042 116.508 6.12042 122.908 15.9204Z" fill="#FFA300"/>
</mask>
<g mask="url(#mask4_862_12512)">
<g filter="url(#filter5_f_862_12512)">
<path d="M204.3 152.62L209.4 163.02L214.5 173.42L224.6 194.22L234.6 215.12L237.1 220.32C237.5 221.22 237.9 222.02 238.3 223.02C238.5 223.52 238.7 224.02 238.8 224.52L239.1 226.12C239.4 228.22 239.3 230.42 238.6 232.52C237.9 234.52 236.8 236.42 235.4 238.12C233.9 239.72 232.1 240.92 230.1 241.82C228.1 242.72 225.9 242.92 223.7 242.92L222.1 242.72C221.6 242.72 221.1 242.42 220.5 242.32C219.4 242.02 218.6 241.72 217.6 241.32L212.2 239.32L190.5 231.22L147.2 214.82L149.3 214.42L115.2 245.82L98.1 261.42L93.8 265.32C93.1 266.02 92.4 266.62 91.5 267.32C91.1 267.62 90.7 268.02 90.2 268.32L88.8 269.12C86.8 270.02 84.7 270.62 82.5 270.52C80.3 270.42 78.2 270.02 76.2 269.12C74.3 268.12 72.5 266.82 71.2 265.22C69.8 263.52 68.9 261.52 68.4 259.52L68.1 257.92C68 257.42 68 256.82 68 256.32C68 255.22 68 254.32 68.1 253.32L68.5 247.52L70 224.42L71.6 201.32L72.4 189.72L73.3 178.12L73 189.72L72.7 201.32L72 224.52L71.2 247.72L71 253.52C71 254.52 70.9 255.52 71 256.32C71 256.72 71 257.22 71.1 257.62L71.3 258.92C71.8 260.52 72.5 262.12 73.6 263.42C74.7 264.72 76.1 265.72 77.7 266.52C79.3 267.22 81 267.52 82.7 267.52C84.4 267.52 86 267.02 87.5 266.32L88.6 265.72C89 265.52 89.3 265.22 89.6 264.92C90.2 264.42 91 263.72 91.7 263.12L95.9 259.12L112.8 243.32L146.7 211.72L147.6 210.92L148.8 211.32L192.1 227.92L213.7 236.32L219.1 238.42C220 238.72 220.9 239.12 221.7 239.32C222.1 239.42 222.5 239.62 222.9 239.62L224.1 239.82C225.8 239.92 227.5 239.72 229 239.12C230.6 238.52 232 237.52 233.2 236.32C234.4 235.02 235.3 233.62 235.8 231.92C236.4 230.32 236.5 228.52 236.3 226.82L236.1 225.52C236 225.12 235.8 224.72 235.7 224.32C235.5 223.52 235 222.62 234.6 221.72L232.2 216.42L222.8 195.22L213.5 174.02L208.8 163.42L204.3 152.62Z" fill="#FFFF00"/>
</g>
</g>
<mask id="mask5_862_12512" style="mask-type:alpha" maskUnits="userSpaceOnUse" x="0" y="9" width="257" height="260">
<path d="M122.908 15.9204L165.108 80.5204L241.708 71.3204C253.308 69.9204 260.808 83.3204 253.408 92.5204L205.008 152.62L237.408 222.72C242.308 233.32 231.808 244.62 220.908 240.42L148.808 213.02L92.2084 265.42C83.6084 273.42 69.7084 266.92 70.3084 255.22L74.1084 178.12L6.70842 140.52C-3.49158 134.82 -1.69158 119.52 9.60842 116.52L84.1084 96.3204L99.1084 20.6204C101.408 9.02042 116.508 6.12042 122.908 15.9204Z" fill="#FFA300"/>
</mask>
<g mask="url(#mask5_862_12512)">
<g filter="url(#filter6_f_862_12512)">
<path d="M73.9608 178.12C60.1608 171.22 46.3608 164.12 32.6608 157.02L12.0608 146.32L6.96082 143.62C6.06083 143.12 5.26083 142.82 4.26083 142.12C3.76083 141.82 3.26083 141.52 2.86083 141.12L1.56082 140.02C-0.039175 138.32 -1.43918 136.32 -2.13917 134.12C-2.83917 131.92 -3.13917 129.52 -2.93917 127.12C-2.63917 124.82 -1.93917 122.52 -0.739175 120.42C0.460825 118.32 2.26083 116.62 4.26083 115.22L5.86082 114.32C6.36082 114.02 6.96082 113.82 7.56082 113.62C8.76082 113.12 9.56082 112.92 10.5608 112.62L16.1608 111.02L38.4608 104.62L60.7608 98.2201L83.0608 91.9201L79.8608 95.4201C82.6608 80.2201 85.5608 65.0201 88.4608 49.9201L92.8608 27.2201L93.9608 21.5201C94.1608 20.5201 94.2608 19.7201 94.6608 18.3201C94.8608 17.7201 94.9608 17.0201 95.2608 16.4201C95.5608 15.8201 95.7608 15.2201 96.0608 14.6201C97.3608 12.3201 99.0608 10.1201 101.261 8.52014C103.461 6.92014 105.961 5.92014 108.461 5.32014C111.061 4.82014 113.761 4.92014 116.361 5.52014C118.961 6.12014 121.361 7.52014 123.461 9.22014C123.961 9.72014 124.461 10.1201 124.861 10.6201C125.361 11.1201 125.661 11.6201 126.161 12.1201C127.061 13.3201 127.461 14.0201 127.961 14.8201L131.161 19.7201L143.761 39.1201C152.161 52.0201 160.561 65.0201 168.861 78.1201L164.561 76.1201L187.561 73.6201C195.261 72.8201 202.961 72.0201 210.561 71.2201L233.561 68.8201L239.361 68.2201C240.361 68.1201 241.161 68.0201 242.461 68.0201C243.061 68.0201 243.661 67.9201 244.261 68.0201L246.061 68.2201C248.461 68.7201 250.761 69.7201 252.661 71.1201C254.561 72.6201 256.161 74.4201 257.261 76.5201C258.361 78.6201 258.961 80.9201 259.161 83.3201C259.261 85.7201 258.761 88.0201 257.961 90.2201L257.161 91.8201C256.961 92.3201 256.561 92.8201 256.161 93.2201C255.461 94.2201 254.861 94.9201 254.261 95.6201L250.561 100.02L235.361 117.62C225.261 129.32 215.161 141.02 204.961 152.62C214.061 140.12 223.361 127.72 232.661 115.42L246.661 96.9201L250.161 92.3201C250.761 91.5201 251.361 90.7201 251.761 90.1201C251.961 89.8201 252.261 89.5201 252.361 89.1201L252.861 88.1201C253.361 86.7201 253.561 85.2201 253.461 83.7201C253.261 82.2201 252.761 80.8201 252.061 79.4201C251.261 78.1201 250.261 77.0201 249.061 76.2201C247.861 75.4201 246.461 74.9201 245.061 74.7201L243.961 74.6201C243.561 74.5201 243.261 74.6201 242.861 74.6201C242.261 74.6201 241.161 74.8201 240.261 74.9201L234.561 75.7201L211.561 78.8201C203.861 79.8201 196.261 80.9201 188.561 81.9201L165.561 84.9201L162.861 85.3201L161.261 82.9201C152.661 70.1201 144.061 57.2201 135.561 44.3201L122.761 25.0201L119.561 20.2201C119.061 19.4201 118.461 18.5201 118.161 18.1201C117.961 17.9201 117.861 17.6201 117.561 17.4201C117.361 17.2201 117.161 17.0201 116.861 16.8201C115.961 16.1201 114.961 15.5201 113.761 15.2201C112.561 14.9201 111.361 14.9201 110.161 15.1201C108.961 15.4201 107.861 15.8201 106.861 16.5201C105.861 17.2201 105.161 18.1201 104.561 19.1201C104.461 19.4201 104.361 19.6201 104.161 19.9201C103.961 20.2201 103.961 20.5201 103.861 20.8201C103.661 21.2201 103.461 22.4201 103.261 23.3201L102.161 29.0201L97.5608 51.7201C94.5608 66.8201 91.3608 82.0201 88.2608 97.1201L87.6608 99.9201L85.0608 100.62L62.6608 106.42L40.1608 112.12L17.6608 117.82L12.0608 119.22C11.1608 119.42 10.0608 119.72 9.46082 119.92C9.16082 120.02 8.76083 120.12 8.46082 120.32L7.46082 120.82C6.26083 121.62 5.16082 122.52 4.36083 123.72C3.56082 124.92 3.06083 126.32 2.76083 127.82C2.56083 129.32 2.66082 130.82 3.06082 132.32C3.46082 133.82 4.26082 135.02 5.26082 136.22L6.06082 137.02C6.36082 137.32 6.66082 137.52 6.96082 137.72C7.56083 138.12 8.46082 138.72 9.26082 139.12L14.2608 142.12L34.3608 154.02C47.5608 161.92 60.7608 169.92 73.9608 178.12Z" fill="#FFAC1A"/>
</g>
</g>
<mask id="mask6_862_12512" style="mask-type:alpha" maskUnits="userSpaceOnUse" x="0" y="9" width="257" height="260">
<path d="M122.908 15.9204L165.108 80.5204L241.708 71.3204C253.308 69.9204 260.808 83.3204 253.408 92.5204L205.008 152.62L237.408 222.72C242.308 233.32 231.808 244.62 220.908 240.42L148.808 213.02L92.2084 265.42C83.6084 273.42 69.7084 266.92 70.3084 255.22L74.1084 178.12L6.70842 140.52C-3.49158 134.82 -1.69158 119.52 9.60842 116.52L84.1084 96.3204L99.1084 20.6204C101.408 9.02042 116.508 6.12042 122.908 15.9204Z" fill="#FFA300"/>
</mask>
<g mask="url(#mask6_862_12512)">
<g filter="url(#filter7_f_862_12512)">
<path d="M201.314 152.62L231.414 217.72C236.014 227.62 226.214 238.02 216.114 234.22L149.014 208.72L96.4141 257.42C88.4141 264.82 75.5141 258.82 76.0141 247.92L79.5141 176.32" fill="url(#paint14_linear_862_12512)"/>
</g>
</g>
<mask id="mask7_862_12512" style="mask-type:alpha" maskUnits="userSpaceOnUse" x="15" y="0" width="483" height="483">
<path d="M256.18 482.36C122.98 482.36 15.0004 374.38 15.0004 241.18C15.0004 107.98 122.98 0 256.18 0C389.38 0 497.36 107.98 497.36 241.18C497.36 374.38 389.38 482.36 256.18 482.36Z" fill="url(#paint15_radial_862_12512)"/>
</mask>
<g mask="url(#mask7_862_12512)">
<g filter="url(#filter8_f_862_12512)">
<path d="M384.007 46.2169L346.804 103.093L279.275 94.993C269.048 93.7604 262.437 105.558 268.96 113.658L311.629 166.572L283.066 228.291C278.746 237.624 288.002 247.573 297.612 243.875L361.174 219.751L411.071 265.886C418.653 272.929 430.907 267.206 430.378 256.905L427.028 189.024L486.446 155.919C495.438 150.901 493.852 137.43 483.89 134.789L418.212 117.004L404.988 50.3549C402.961 40.1418 389.649 37.5886 384.007 46.2169Z" fill="#743C1C"/>
</g>
</g>
<path d="M389.452 15.9204L347.252 80.5204L270.652 71.3204C259.052 69.9204 251.552 83.3204 258.952 92.5204L307.352 152.62L274.952 222.72C270.052 233.32 280.552 244.62 291.452 240.42L363.552 213.02L420.152 265.42C428.752 273.42 442.652 266.92 442.052 255.22L438.252 178.12L505.652 140.52C515.852 134.82 514.052 119.52 502.752 116.52L428.252 96.3204L413.252 20.6204C410.952 9.02042 395.852 6.12042 389.452 15.9204Z" fill="url(#paint16_linear_862_12512)"/>
<g style="mix-blend-mode:overlay">
<path d="M389.452 15.9204L347.252 80.5204L270.652 71.3204C259.052 69.9204 251.552 83.3204 258.952 92.5204L307.352 152.62L274.952 222.72C270.052 233.32 280.552 244.62 291.452 240.42L363.552 213.02L420.152 265.42C428.752 273.42 442.652 266.92 442.052 255.22L438.252 178.12L505.652 140.52C515.852 134.82 514.052 119.52 502.752 116.52L428.252 96.3204L413.252 20.6204C410.952 9.02042 395.852 6.12042 389.452 15.9204Z" fill="url(#paint17_radial_862_12512)"/>
</g>
<mask id="mask8_862_12512" style="mask-type:alpha" maskUnits="userSpaceOnUse" x="256" y="9" width="257" height="260">
<path d="M389.452 15.9204L347.252 80.5204L270.652 71.3204C259.052 69.9204 251.552 83.3204 258.952 92.5204L307.352 152.62L274.952 222.72C270.052 233.32 280.552 244.62 291.452 240.42L363.552 213.02L420.152 265.42C428.752 273.42 442.652 266.92 442.052 255.22L438.252 178.12L505.652 140.52C515.852 134.82 514.052 119.52 502.752 116.52L428.252 96.3204L413.252 20.6204C410.952 9.02042 395.852 6.12042 389.452 15.9204Z" fill="#FFA300"/>
</mask>
<g mask="url(#mask8_862_12512)">
<g filter="url(#filter9_f_862_12512)">
<path d="M389.452 15.9204L347.252 80.5204L270.652 71.3204C259.052 69.9204 251.552 83.3204 258.952 92.5204L307.352 152.62L274.952 222.72C270.052 233.32 280.552 244.62 291.452 240.42L363.552 213.02L420.152 265.42C428.752 273.42 442.652 266.92 442.052 255.22L438.252 178.12L505.652 140.52C515.852 134.82 514.052 119.52 502.752 116.52L428.252 96.3204L413.252 20.6204C410.952 9.02042 395.852 6.12042 389.452 15.9204Z" stroke="#FFA300" stroke-width="7" stroke-miterlimit="10"/>
</g>
</g>
<mask id="mask9_862_12512" style="mask-type:alpha" maskUnits="userSpaceOnUse" x="256" y="9" width="257" height="260">
<path d="M389.452 15.9204L347.252 80.5204L270.652 71.3204C259.052 69.9204 251.552 83.3204 258.952 92.5204L307.352 152.62L274.952 222.72C270.052 233.32 280.552 244.62 291.452 240.42L363.552 213.02L420.152 265.42C428.752 273.42 442.652 266.92 442.052 255.22L438.252 178.12L505.652 140.52C515.852 134.82 514.052 119.52 502.752 116.52L428.252 96.3204L413.252 20.6204C410.952 9.02042 395.852 6.12042 389.452 15.9204Z" fill="#FFA300"/>
</mask>
<g mask="url(#mask9_862_12512)">
<g filter="url(#filter10_f_862_12512)">
<path d="M308.06 152.62L302.96 163.02L297.86 173.42L287.76 194.22L277.76 215.12L275.26 220.32C274.86 221.22 274.46 222.02 274.06 223.02C273.86 223.52 273.66 224.02 273.56 224.52L273.26 226.12C272.96 228.22 273.06 230.42 273.76 232.52C274.46 234.52 275.56 236.42 276.96 238.12C278.46 239.72 280.26 240.92 282.26 241.82C284.26 242.72 286.46 242.92 288.66 242.92L290.26 242.72C290.76 242.72 291.26 242.42 291.86 242.32C292.96 242.02 293.76 241.72 294.76 241.32L300.16 239.32L321.86 231.22L365.16 214.82L363.06 214.42L397.16 245.82L414.26 261.42L418.56 265.32C419.26 266.02 419.96 266.62 420.86 267.32C421.26 267.62 421.66 268.02 422.16 268.32L423.56 269.12C425.56 270.02 427.66 270.62 429.86 270.52C432.06 270.42 434.16 270.02 436.16 269.12C438.06 268.12 439.86 266.82 441.16 265.22C442.56 263.52 443.46 261.52 443.96 259.52L444.26 257.92C444.36 257.42 444.36 256.82 444.36 256.32C444.36 255.22 444.36 254.32 444.26 253.32L443.86 247.52L442.36 224.42L440.76 201.32L439.96 189.72L439.06 178.12L439.36 189.72L439.66 201.32L440.36 224.52L441.16 247.72L441.36 253.52C441.36 254.52 441.46 255.52 441.36 256.32C441.36 256.72 441.36 257.22 441.26 257.62L441.06 258.92C440.56 260.52 439.86 262.12 438.76 263.42C437.66 264.72 436.26 265.72 434.66 266.52C433.06 267.22 431.36 267.52 429.66 267.52C427.96 267.52 426.36 267.02 424.86 266.32L423.76 265.72C423.36 265.52 423.06 265.22 422.76 264.92C422.16 264.42 421.36 263.72 420.66 263.12L416.46 259.12L399.56 243.32L365.66 211.72L364.76 210.92L363.56 211.32L320.26 227.92L298.66 236.32L293.26 238.42C292.36 238.72 291.46 239.12 290.66 239.32C290.26 239.42 289.86 239.62 289.46 239.62L288.26 239.82C286.56 239.92 284.86 239.72 283.36 239.12C281.76 238.52 280.36 237.52 279.16 236.32C277.96 235.02 277.06 233.62 276.56 231.92C275.96 230.32 275.86 228.52 276.06 226.82L276.26 225.52C276.36 225.12 276.56 224.72 276.66 224.32C276.86 223.52 277.36 222.62 277.76 221.72L280.16 216.42L289.56 195.22L298.86 174.02L303.56 163.42L308.06 152.62Z" fill="#FFFF00"/>
</g>
</g>
<mask id="mask10_862_12512" style="mask-type:alpha" maskUnits="userSpaceOnUse" x="256" y="9" width="257" height="260">
<path d="M389.452 15.9204L347.252 80.5204L270.652 71.3204C259.052 69.9204 251.552 83.3204 258.952 92.5204L307.352 152.62L274.952 222.72C270.052 233.32 280.552 244.62 291.452 240.42L363.552 213.02L420.152 265.42C428.752 273.42 442.652 266.92 442.052 255.22L438.252 178.12L505.652 140.52C515.852 134.82 514.052 119.52 502.752 116.52L428.252 96.3204L413.252 20.6204C410.952 9.02042 395.852 6.12042 389.452 15.9204Z" fill="#FFA300"/>
</mask>
<g mask="url(#mask10_862_12512)">
<g filter="url(#filter11_f_862_12512)">
<path d="M438.4 178.12C452.2 171.22 466 164.12 479.7 157.02L500.3 146.32L505.4 143.62C506.3 143.12 507.1 142.82 508.1 142.12C508.6 141.82 509.1 141.52 509.5 141.12L510.8 140.02C512.4 138.32 513.8 136.32 514.5 134.12C515.2 131.92 515.5 129.52 515.3 127.12C515 124.82 514.3 122.52 513.1 120.42C511.9 118.32 510.1 116.62 508.1 115.22L506.5 114.32C506 114.02 505.4 113.82 504.8 113.62C503.6 113.12 502.8 112.92 501.8 112.62L496.2 111.02L473.9 104.62L451.6 98.2201L429.3 91.9201L432.5 95.4201C429.7 80.2201 426.8 65.0201 423.9 49.9201L419.5 27.2201L418.4 21.5201C418.2 20.5201 418.1 19.7201 417.7 18.3201C417.5 17.7201 417.4 17.0201 417.1 16.4201C416.8 15.8201 416.6 15.2201 416.3 14.6201C415 12.3201 413.3 10.1201 411.1 8.52014C408.9 6.92014 406.4 5.92014 403.9 5.32014C401.3 4.82014 398.6 4.92014 396 5.52014C393.4 6.12014 391 7.52014 388.9 9.22014C388.4 9.72014 387.9 10.1201 387.5 10.6201C387 11.1201 386.7 11.6201 386.2 12.1201C385.3 13.3201 384.9 14.0201 384.4 14.8201L381.2 19.7201L368.6 39.1201C360.2 52.0201 351.8 65.0201 343.5 78.1201L347.8 76.1201L324.8 73.6201C317.1 72.8201 309.4 72.0201 301.8 71.2201L278.8 68.8201L273 68.2201C272 68.1201 271.2 68.0201 269.9 68.0201C269.3 68.0201 268.7 67.9201 268.1 68.0201L266.3 68.2201C263.9 68.7201 261.6 69.7201 259.7 71.1201C257.8 72.6201 256.2 74.4201 255.1 76.5201C254 78.6201 253.4 80.9201 253.2 83.3201C253.1 85.7201 253.6 88.0201 254.4 90.2201L255.2 91.8201C255.4 92.3201 255.8 92.8201 256.2 93.2201C256.9 94.2201 257.5 94.9201 258.1 95.6201L261.8 100.02L277 117.62C287.1 129.32 297.2 141.02 307.4 152.62C298.3 140.12 289 127.72 279.7 115.42L265.7 96.9201L262.2 92.3201C261.6 91.5201 261 90.7201 260.6 90.1201C260.4 89.8201 260.1 89.5201 260 89.1201L259.5 88.1201C259 86.7201 258.799 85.2201 258.9 83.7201C259.1 82.2201 259.6 80.8201 260.3 79.4201C261.1 78.1201 262.1 77.0201 263.3 76.2201C264.5 75.4201 265.9 74.9201 267.3 74.7201L268.4 74.6201C268.8 74.5201 269.1 74.6201 269.5 74.6201C270.1 74.6201 271.2 74.8201 272.1 74.9201L277.8 75.7201L300.8 78.8201C308.5 79.8201 316.1 80.9201 323.8 81.9201L346.8 84.9201L349.5 85.3201L351.1 82.9201C359.7 70.1201 368.3 57.2201 376.8 44.3201L389.6 25.0201L392.8 20.2201C393.3 19.4201 393.9 18.5201 394.2 18.1201C394.4 17.9201 394.5 17.6201 394.8 17.4201C395 17.2201 395.2 17.0201 395.5 16.8201C396.4 16.1201 397.4 15.5201 398.6 15.2201C399.8 14.9201 401 14.9201 402.2 15.1201C403.4 15.4201 404.5 15.8201 405.5 16.5201C406.5 17.2201 407.2 18.1201 407.8 19.1201C407.9 19.4201 408 19.6201 408.2 19.9201C408.4 20.2201 408.4 20.5201 408.5 20.8201C408.7 21.2201 408.9 22.4201 409.1 23.3201L410.2 29.0201L414.8 51.7201C417.8 66.8201 421 82.0201 424.1 97.1201L424.7 99.9201L427.3 100.62L449.7 106.42L472.2 112.12L494.7 117.82L500.3 119.22C501.2 119.42 502.3 119.72 502.9 119.92C503.2 120.02 503.6 120.12 503.9 120.32L504.9 120.82C506.1 121.62 507.2 122.52 508 123.72C508.8 124.92 509.3 126.32 509.6 127.82C509.8 129.32 509.7 130.82 509.3 132.32C508.9 133.82 508.1 135.02 507.1 136.22L506.3 137.02C506 137.32 505.7 137.52 505.4 137.72C504.8 138.12 503.9 138.72 503.1 139.12L498.1 142.12L478 154.02C464.8 161.92 451.6 169.92 438.4 178.12Z" fill="#FFAC1A"/>
</g>
</g>
<mask id="mask11_862_12512" style="mask-type:alpha" maskUnits="userSpaceOnUse" x="256" y="9" width="257" height="260">
<path d="M389.452 15.9204L347.252 80.5204L270.652 71.3204C259.052 69.9204 251.552 83.3204 258.952 92.5204L307.352 152.62L274.952 222.72C270.052 233.32 280.552 244.62 291.452 240.42L363.552 213.02L420.152 265.42C428.752 273.42 442.652 266.92 442.052 255.22L438.252 178.12L505.652 140.52C515.852 134.82 514.052 119.52 502.752 116.52L428.252 96.3204L413.252 20.6204C410.952 9.02042 395.852 6.12042 389.452 15.9204Z" fill="#FFA300"/>
</mask>
<g mask="url(#mask11_862_12512)">
<g filter="url(#filter12_f_862_12512)">
<path d="M311.046 152.62L280.946 217.72C276.346 227.62 286.146 238.02 296.246 234.22L363.346 208.72L415.946 257.42C423.946 264.82 436.846 258.82 436.346 247.92L432.846 176.32" fill="url(#paint18_linear_862_12512)"/>
</g>
</g>
<defs>
<filter id="filter0_f_862_12512" x="-11.8149" y="206.558" width="535.022" height="306.595" filterUnits="userSpaceOnUse" color-interpolation-filters="sRGB">
<feFlood flood-opacity="0" result="BackgroundImageFix"/>
<feBlend mode="normal" in="SourceGraphic" in2="BackgroundImageFix" result="shape"/>
<feGaussianBlur stdDeviation="12.5" result="effect1_foregroundBlur_862_12512"/>
</filter>
<filter id="filter1_f_862_12512" x="-26.8149" y="191.558" width="565.022" height="336.595" filterUnits="userSpaceOnUse" color-interpolation-filters="sRGB">
<feFlood flood-opacity="0" result="BackgroundImageFix"/>
<feBlend mode="normal" in="SourceGraphic" in2="BackgroundImageFix" result="shape"/>
<feGaussianBlur stdDeviation="20" result="effect1_foregroundBlur_862_12512"/>
</filter>
<filter id="filter2_f_862_12512" x="66.9492" y="253.935" width="378.48" height="176.077" filterUnits="userSpaceOnUse" color-interpolation-filters="sRGB">
<feFlood flood-opacity="0" result="BackgroundImageFix"/>
<feBlend mode="normal" in="SourceGraphic" in2="BackgroundImageFix" result="shape"/>
<feGaussianBlur stdDeviation="5" result="effect1_foregroundBlur_862_12512"/>
</filter>
<filter id="filter3_f_862_12512" x="-5" y="16" width="276" height="278" filterUnits="userSpaceOnUse" color-interpolation-filters="sRGB">
<feFlood flood-opacity="0" result="BackgroundImageFix"/>
<feBlend mode="normal" in="SourceGraphic" in2="BackgroundImageFix" result="shape"/>
<feGaussianBlur stdDeviation="12.5" result="effect1_foregroundBlur_862_12512"/>
</filter>
<filter id="filter4_f_862_12512" x="-13.498" y="-3.5083" width="283.365" height="285.975" filterUnits="userSpaceOnUse" color-interpolation-filters="sRGB">
<feFlood flood-opacity="0" result="BackgroundImageFix"/>
<feBlend mode="normal" in="SourceGraphic" in2="BackgroundImageFix" result="shape"/>
<feGaussianBlur stdDeviation="5" result="effect1_foregroundBlur_862_12512"/>
</filter>
<filter id="filter5_f_862_12512" x="58" y="142.62" width="191.259" height="137.911" filterUnits="userSpaceOnUse" color-interpolation-filters="sRGB">
<feFlood flood-opacity="0" result="BackgroundImageFix"/>
<feBlend mode="normal" in="SourceGraphic" in2="BackgroundImageFix" result="shape"/>
<feGaussianBlur stdDeviation="5" result="effect1_foregroundBlur_862_12512"/>
</filter>
<filter id="filter6_f_862_12512" x="-15" y="-7" width="286.173" height="197.12" filterUnits="userSpaceOnUse" color-interpolation-filters="sRGB">
<feFlood flood-opacity="0" result="BackgroundImageFix"/>
<feBlend mode="normal" in="SourceGraphic" in2="BackgroundImageFix" result="shape"/>
<feGaussianBlur stdDeviation="6" result="effect1_foregroundBlur_862_12512"/>
</filter>
<filter id="filter7_f_862_12512" x="41" y="117.62" width="226.582" height="178.073" filterUnits="userSpaceOnUse" color-interpolation-filters="sRGB">
<feFlood flood-opacity="0" result="BackgroundImageFix"/>
<feBlend mode="normal" in="SourceGraphic" in2="BackgroundImageFix" result="shape"/>
<feGaussianBlur stdDeviation="17.5" result="effect1_foregroundBlur_862_12512"/>
</filter>
<filter id="filter8_f_862_12512" x="241.36" y="16" width="276" height="278" filterUnits="userSpaceOnUse" color-interpolation-filters="sRGB">
<feFlood flood-opacity="0" result="BackgroundImageFix"/>
<feBlend mode="normal" in="SourceGraphic" in2="BackgroundImageFix" result="shape"/>
<feGaussianBlur stdDeviation="12.5" result="effect1_foregroundBlur_862_12512"/>
</filter>
<filter id="filter9_f_862_12512" x="242.493" y="-3.5083" width="283.365" height="285.975" filterUnits="userSpaceOnUse" color-interpolation-filters="sRGB">
<feFlood flood-opacity="0" result="BackgroundImageFix"/>
<feBlend mode="normal" in="SourceGraphic" in2="BackgroundImageFix" result="shape"/>
<feGaussianBlur stdDeviation="5" result="effect1_foregroundBlur_862_12512"/>
</filter>
<filter id="filter10_f_862_12512" x="263.101" y="142.62" width="191.259" height="137.911" filterUnits="userSpaceOnUse" color-interpolation-filters="sRGB">
<feFlood flood-opacity="0" result="BackgroundImageFix"/>
<feBlend mode="normal" in="SourceGraphic" in2="BackgroundImageFix" result="shape"/>
<feGaussianBlur stdDeviation="5" result="effect1_foregroundBlur_862_12512"/>
</filter>
<filter id="filter11_f_862_12512" x="241.187" y="-7" width="286.173" height="197.12" filterUnits="userSpaceOnUse" color-interpolation-filters="sRGB">
<feFlood flood-opacity="0" result="BackgroundImageFix"/>
<feBlend mode="normal" in="SourceGraphic" in2="BackgroundImageFix" result="shape"/>
<feGaussianBlur stdDeviation="6" result="effect1_foregroundBlur_862_12512"/>
</filter>
<filter id="filter12_f_862_12512" x="244.779" y="117.62" width="226.582" height="178.073" filterUnits="userSpaceOnUse" color-interpolation-filters="sRGB">
<feFlood flood-opacity="0" result="BackgroundImageFix"/>
<feBlend mode="normal" in="SourceGraphic" in2="BackgroundImageFix" result="shape"/>
<feGaussianBlur stdDeviation="17.5" result="effect1_foregroundBlur_862_12512"/>
</filter>
<radialGradient id="paint0_radial_862_12512" cx="0" cy="0" r="1" gradientUnits="userSpaceOnUse" gradientTransform="translate(256) rotate(90) scale(482)">
<stop stop-color="#FFDE43"/>
<stop offset="1" stop-color="#FFBC00"/>
</radialGradient>
<radialGradient id="paint1_radial_862_12512" cx="0" cy="0" r="1" gradientUnits="userSpaceOnUse" gradientTransform="translate(256 64.5) rotate(90) scale(417.5)">
<stop stop-color="white" stop-opacity="0.5"/>
<stop offset="0.782278"/>
</radialGradient>
<radialGradient id="paint2_radial_862_12512" cx="0" cy="0" r="1" gradientUnits="userSpaceOnUse" gradientTransform="translate(256 64.5) rotate(90) scale(417.5)">
<stop stop-color="white" stop-opacity="0.5"/>
<stop offset="0.782278"/>
</radialGradient>
<radialGradient id="paint3_radial_862_12512" cx="0" cy="0" r="1" gradientUnits="userSpaceOnUse" gradientTransform="translate(256 -52.5) rotate(90) scale(534.5 722.835)">
<stop offset="0.0922635" stop-color="white"/>
<stop offset="0.670207" stop-color="white" stop-opacity="0"/>
</radialGradient>
<linearGradient id="paint4_linear_862_12512" x1="96.8076" y1="365.216" x2="415.45" y2="365.216" gradientUnits="userSpaceOnUse">
<stop stop-color="#CCCCCC"/>
<stop offset="0.05" stop-color="#D5D5D5"/>
<stop offset="0.2" stop-color="#E9E9E9"/>
<stop offset="0.35" stop-color="#F6F6F6"/>
<stop offset="0.5" stop-color="#FAFAFA"/>
<stop offset="0.65" stop-color="#F6F6F6"/>
<stop offset="0.8" stop-color="#E9E9E9"/>
<stop offset="0.95" stop-color="#D5D5D5"/>
<stop offset="1" stop-color="#CCCCCC"/>
</linearGradient>
<linearGradient id="paint5_linear_862_12512" x1="81.8664" y1="305.003" x2="430.51" y2="305.003" gradientUnits="userSpaceOnUse">
<stop stop-color="#CCCCCC"/>
<stop offset="0.05" stop-color="#D5D5D5"/>
<stop offset="0.2" stop-color="#E9E9E9"/>
<stop offset="0.35" stop-color="#F6F6F6"/>
<stop offset="0.5" stop-color="#FAFAFA"/>
<stop offset="0.65" stop-color="#F6F6F6"/>
<stop offset="0.8" stop-color="#E9E9E9"/>
<stop offset="0.95" stop-color="#D5D5D5"/>
<stop offset="1" stop-color="#CCCCCC"/>
</linearGradient>
<radialGradient id="paint6_radial_862_12512" cx="0" cy="0" r="1" gradientUnits="userSpaceOnUse" gradientTransform="translate(256.19 328.24) scale(113.86)">
<stop stop-color="#401C02"/>
<stop offset="1" stop-color="#401C02"/>
</radialGradient>
<linearGradient id="paint7_linear_862_12512" x1="174118" y1="92647.6" x2="174118" y2="70158.7" gradientUnits="userSpaceOnUse">
<stop stop-color="#401C02"/>
<stop offset="1" stop-color="#401C02"/>
</linearGradient>
<linearGradient id="paint8_linear_862_12512" x1="174118" y1="92647.6" x2="174118" y2="70158.7" gradientUnits="userSpaceOnUse">
<stop stop-color="#401C02"/>
<stop offset="1" stop-color="#401C02"/>
</linearGradient>
<linearGradient id="paint9_linear_862_12512" x1="256.189" y1="419.066" x2="256.189" y2="266.299" gradientUnits="userSpaceOnUse">
<stop offset="0.265625" stop-color="#FFDE43"/>
<stop offset="1" stop-color="#F79D14"/>
</linearGradient>
<linearGradient id="paint10_linear_862_12512" x1="174118" y1="92648.6" x2="174118" y2="70159.7" gradientUnits="userSpaceOnUse">
<stop stop-color="#401C02"/>
<stop offset="1" stop-color="#401C02"/>
</linearGradient>
<radialGradient id="paint11_radial_862_12512" cx="0" cy="0" r="1" gradientUnits="userSpaceOnUse" gradientTransform="translate(256) rotate(90) scale(482)">
<stop stop-color="#FFDE43"/>
<stop offset="1" stop-color="#FFBC00"/>
</radialGradient>
<linearGradient id="paint12_linear_862_12512" x1="156.532" y1="252.297" x2="106.532" y2="-4.93906" gradientUnits="userSpaceOnUse">
<stop stop-color="#FFAA29"/>
<stop offset="0.0323366" stop-color="#FFAF29"/>
<stop offset="0.1758" stop-color="#FFC229"/>
<stop offset="0.345" stop-color="#FFCF29"/>
<stop offset="0.5627" stop-color="#FFD729"/>
<stop offset="1" stop-color="#FFD929"/>
</linearGradient>
<radialGradient id="paint13_radial_862_12512" cx="0" cy="0" r="1" gradientUnits="userSpaceOnUse" gradientTransform="translate(133.265 132.596) rotate(-10.9998) scale(127.513)">
<stop stop-color="white"/>
<stop offset="0.0854679" stop-color="#F7F7F7"/>
<stop offset="0.2193" stop-color="#E1E1E1"/>
<stop offset="0.3849" stop-color="#BCBCBC"/>
<stop offset="0.5757" stop-color="#898989"/>
<stop offset="0.7878" stop-color="#484848"/>
<stop offset="1"/>
</radialGradient>
<linearGradient id="paint14_linear_862_12512" x1="156.499" y1="246.817" x2="139.498" y2="159.349" gradientUnits="userSpaceOnUse">
<stop stop-color="#FFAA29"/>
<stop offset="0.0323366" stop-color="#FFAF29"/>
<stop offset="0.1758" stop-color="#FFC229"/>
<stop offset="0.345" stop-color="#FFCF29"/>
<stop offset="0.5627" stop-color="#FFD729"/>
<stop offset="1" stop-color="#FFD929" stop-opacity="0.6"/>
</linearGradient>
<radialGradient id="paint15_radial_862_12512" cx="0" cy="0" r="1" gradientUnits="userSpaceOnUse" gradientTransform="translate(256.36) rotate(90) scale(482)">
<stop stop-color="#FFDE43"/>
<stop offset="1" stop-color="#FFBC00"/>
</radialGradient>
<linearGradient id="paint16_linear_862_12512" x1="355.828" y1="252.297" x2="405.829" y2="-4.93906" gradientUnits="userSpaceOnUse">
<stop stop-color="#FFAA29"/>
<stop offset="0.0323366" stop-color="#FFAF29"/>
<stop offset="0.1758" stop-color="#FFC229"/>
<stop offset="0.345" stop-color="#FFCF29"/>
<stop offset="0.5627" stop-color="#FFD729"/>
<stop offset="1" stop-color="#FFD929"/>
</linearGradient>
<radialGradient id="paint17_radial_862_12512" cx="0" cy="0" r="1" gradientUnits="userSpaceOnUse" gradientTransform="translate(379.095 132.596) rotate(-169) scale(127.513)">
<stop stop-color="white"/>
<stop offset="0.0854679" stop-color="#F7F7F7"/>
<stop offset="0.2193" stop-color="#E1E1E1"/>
<stop offset="0.3849" stop-color="#BCBCBC"/>
<stop offset="0.5757" stop-color="#898989"/>
<stop offset="0.7878" stop-color="#484848"/>
<stop offset="1"/>
</radialGradient>
<linearGradient id="paint18_linear_862_12512" x1="355.861" y1="246.817" x2="372.863" y2="159.349" gradientUnits="userSpaceOnUse">
<stop stop-color="#FFAA29"/>
<stop offset="0.0323366" stop-color="#FFAF29"/>
<stop offset="0.1758" stop-color="#FFC229"/>
<stop offset="0.345" stop-color="#FFCF29"/>
<stop offset="0.5627" stop-color="#FFD729"/>
<stop offset="1" stop-color="#FFD929" stop-opacity="0.6"/>
</linearGradient>
</defs>
</svg>
