<svg width="58" height="58" viewBox="0 0 58 58" fill="none" xmlns="http://www.w3.org/2000/svg">
<path fill-rule="evenodd" clip-rule="evenodd" d="M28.8536 57.0638C44.3515 57.0638 56.915 44.5002 56.915 29.0023C56.915 13.5044 44.3515 0.940857 28.8536 0.940857C13.3557 0.940857 0.792114 13.5044 0.792114 29.0023C0.792114 35.1552 2.77241 40.8456 6.13041 45.471C6.30208 45.7074 6.36744 46.0055 6.30405 46.2908L4.91678 52.5335C4.74816 53.2923 5.47179 53.9449 6.2092 53.6991L11.8151 51.8305C12.1224 51.728 12.4596 51.7818 12.7245 51.9682C17.2874 55.1787 22.8504 57.0638 28.8536 57.0638Z" fill="#FF5700"/>
<path d="M11.8151 51.8305L11.657 51.3561L11.8151 51.8305ZM12.7245 51.9682L12.4367 52.3771L12.7245 51.9682ZM4.91678 52.5335L4.42869 52.425L4.91678 52.5335ZM6.2092 53.6991L6.05108 53.2248L6.2092 53.6991ZM6.30405 46.2908L6.79215 46.3992L6.30405 46.2908ZM56.415 29.0023C56.415 44.2241 44.0754 56.5638 28.8536 56.5638V57.5638C44.6276 57.5638 57.415 44.7764 57.415 29.0023H56.415ZM28.8536 1.44086C44.0754 1.44086 56.415 13.7805 56.415 29.0023H57.415C57.415 13.2283 44.6276 0.440857 28.8536 0.440857V1.44086ZM1.29211 29.0023C1.29211 13.7805 13.6318 1.44086 28.8536 1.44086V0.440857C13.0795 0.440857 0.292114 13.2283 0.292114 29.0023H1.29211ZM6.53502 45.1772C3.23694 40.6344 1.29211 35.0462 1.29211 29.0023H0.292114C0.292114 35.2643 2.30787 41.0569 5.7258 45.7647L6.53502 45.1772ZM5.40488 52.642L6.79215 46.3992L5.81596 46.1823L4.42869 52.425L5.40488 52.642ZM11.657 51.3561L6.05108 53.2248L6.36731 54.1735L11.9732 52.3048L11.657 51.3561ZM28.8536 56.5638C22.9567 56.5638 17.4937 54.7124 13.0122 51.5592L12.4367 52.3771C17.0812 55.6449 22.7441 57.5638 28.8536 57.5638V56.5638ZM11.9732 52.3048C12.1252 52.2541 12.2975 52.2791 12.4367 52.3771L13.0122 51.5592C12.6216 51.2844 12.1196 51.2019 11.657 51.3561L11.9732 52.3048ZM4.42869 52.425C4.17576 53.5632 5.2612 54.5422 6.36731 54.1735L6.05108 53.2248C5.68238 53.3477 5.32057 53.0214 5.40488 52.642L4.42869 52.425ZM5.7258 45.7647C5.8159 45.8888 5.84733 46.0411 5.81596 46.1823L6.79215 46.3992C6.88756 45.9699 6.78827 45.526 6.53502 45.1772L5.7258 45.7647Z" fill="black"/>
<g filter="url(#filter0_f_1_1229)">
<ellipse cx="46.6258" cy="36.4854" rx="2.80615" ry="1.87076" fill="#FF8765"/>
</g>
<g filter="url(#filter1_f_1_1229)">
<ellipse cx="11.0813" cy="36.4854" rx="2.80615" ry="1.87076" fill="#FF8663"/>
</g>
<ellipse cx="16.6936" cy="31.8085" rx="2.80615" ry="4.67691" fill="black"/>
<ellipse cx="41.0135" cy="31.8085" rx="2.80615" ry="4.67691" fill="black"/>
<path d="M13.8875 22.4546C15.4464 23.0782 19.1256 25.0737 21.3705 28.0669" stroke="black" stroke-width="0.8" stroke-linecap="round" stroke-linejoin="round"/>
<path d="M43.8197 22.4546C42.2607 23.0782 38.5815 25.0737 36.3366 28.0669" stroke="black" stroke-width="0.8" stroke-linecap="round" stroke-linejoin="round"/>
<path d="M28.8536 40.2269C25.2007 40.2269 21.6823 43.9684 21.3705 45.8392C21.3705 45.8392 25.112 43.9684 28.8536 43.9684C32.5951 43.9684 36.3366 45.8392 36.3366 45.8392C35.4012 43.9684 32.5065 40.2269 28.8536 40.2269Z" fill="black"/>
<defs>
<filter id="filter0_f_1_1229" x="42.8197" y="33.6146" width="7.61229" height="5.74153" filterUnits="userSpaceOnUse" color-interpolation-filters="sRGB">
<feFlood flood-opacity="0" result="BackgroundImageFix"/>
<feBlend mode="normal" in="SourceGraphic" in2="BackgroundImageFix" result="shape"/>
<feGaussianBlur stdDeviation="0.5" result="effect1_foregroundBlur_1_1229"/>
</filter>
<filter id="filter1_f_1_1229" x="7.27518" y="33.6146" width="7.61229" height="5.74153" filterUnits="userSpaceOnUse" color-interpolation-filters="sRGB">
<feFlood flood-opacity="0" result="BackgroundImageFix"/>
<feBlend mode="normal" in="SourceGraphic" in2="BackgroundImageFix" result="shape"/>
<feGaussianBlur stdDeviation="0.5" result="effect1_foregroundBlur_1_1229"/>
</filter>
</defs>
</svg>
