<svg width="483" height="483" viewBox="0 0 483 483" fill="none" xmlns="http://www.w3.org/2000/svg">
<path d="M241.18 482.36C374.38 482.36 482.36 374.38 482.36 241.18C482.36 107.98 374.38 0 241.18 0C107.98 0 0 107.98 0 241.18C0 374.38 107.98 482.36 241.18 482.36Z" fill="url(#paint0_radial_862_12545)"/>
<g style="mix-blend-mode:soft-light">
<path d="M241.18 482.54C374.38 482.54 482.36 374.56 482.36 241.36C482.36 108.16 374.38 0.179932 241.18 0.179932C107.98 0.179932 0 108.16 0 241.36C0 374.56 107.98 482.54 241.18 482.54Z" fill="url(#paint1_radial_862_12545)"/>
</g>
<g style="mix-blend-mode:soft-light">
<path d="M241.18 482.54C374.38 482.54 482.36 374.56 482.36 241.36C482.36 108.16 374.38 0.179932 241.18 0.179932C107.98 0.179932 0 108.16 0 241.36C0 374.56 107.98 482.54 241.18 482.54Z" fill="url(#paint2_radial_862_12545)"/>
</g>
<g style="mix-blend-mode:soft-light">
<path d="M241.18 482.54C374.38 482.54 482.36 374.56 482.36 241.36C482.36 108.16 374.38 0.179932 241.18 0.179932C107.98 0.179932 0 108.16 0 241.36C0 374.56 107.98 482.54 241.18 482.54Z" fill="url(#paint3_radial_862_12545)" fill-opacity="0.7"/>
</g>
<mask id="mask0_862_12545" style="mask-type:alpha" maskUnits="userSpaceOnUse" x="0" y="0" width="483" height="483">
<path d="M241.18 482.54C374.38 482.54 482.36 374.56 482.36 241.36C482.36 108.16 374.38 0.179932 241.18 0.179932C107.98 0.179932 0 108.16 0 241.36C0 374.56 107.98 482.54 241.18 482.54Z" fill="white"/>
</mask>
<g mask="url(#mask0_862_12545)">
<g filter="url(#filter0_f_862_12545)">
<path d="M-1.37541 234.479C-1.11353 231.052 0.0141891 230.709 0.343108 234.188C0.708543 238.054 -0.00182796 245.826 0.169198 250.514C0.622042 262.928 2.5249 273.721 4.48654 282.5C10.808 310.792 19.5622 329.022 27.7273 344.468C54.5668 395.24 83.9672 420.95 112.648 440.327C154.69 468.729 197.073 477.764 239.491 479.68C240.561 479.728 240.739 486.698 239.686 487.605C237.788 489.241 235.437 487.617 233.495 487.549C227.915 487.354 222.336 486.971 216.756 486.391C200.213 484.672 183.671 481.171 167.162 475.538C122.275 460.224 73.877 434.001 31.6097 360.142C28.9507 355.496 26.3128 350.604 23.7123 345.347C21.6325 341.143 19.573 336.736 17.5498 332.023C10.895 316.521 -4.61274 276.838 -1.37541 234.479ZM239.52 487.68C238.5 487.711 238.241 481.214 239.214 479.865C240.685 477.827 242.889 479.505 244.439 479.409C250.878 479.006 257.315 478.409 263.75 477.601C281.396 475.385 299.028 471.602 316.621 465.776C360.257 451.325 407.17 429.295 448.305 361.611C450.923 357.303 453.519 352.733 456.079 347.821C463.86 332.892 483.362 293.264 481.107 244.001C480.917 239.848 482.182 237.361 482.748 240.923C483.468 245.459 483.176 254.916 482.977 259.948C482.342 276.063 479.867 289.691 477.257 300.698C468.987 335.579 457.377 355.803 446.744 372.689C412.184 427.577 374.649 449.704 338.156 465.604C305.425 479.865 272.445 486.663 239.52 487.68Z" fill="#401C02"/>
</g>
<g filter="url(#filter1_f_862_12545)">
<path d="M-1.37541 234.479C-1.11353 231.052 0.0141891 230.709 0.343108 234.188C0.708543 238.054 -0.00182796 245.826 0.169198 250.514C0.622042 262.928 2.5249 273.721 4.48654 282.5C10.808 310.792 19.5622 329.022 27.7273 344.468C54.5668 395.24 83.9672 420.95 112.648 440.327C154.69 468.729 197.073 477.764 239.491 479.68C240.561 479.728 240.739 486.698 239.686 487.605C237.788 489.241 235.437 487.617 233.495 487.549C227.915 487.354 222.336 486.971 216.756 486.391C200.213 484.672 183.671 481.171 167.162 475.538C122.275 460.224 73.877 434.001 31.6097 360.142C28.9507 355.496 26.3128 350.604 23.7123 345.347C21.6325 341.143 19.573 336.736 17.5498 332.023C10.895 316.521 -4.61274 276.838 -1.37541 234.479ZM239.52 487.68C238.5 487.711 238.241 481.214 239.214 479.865C240.685 477.827 242.889 479.505 244.439 479.409C250.878 479.006 257.315 478.409 263.75 477.601C281.396 475.385 299.028 471.602 316.621 465.776C360.257 451.325 407.17 429.295 448.305 361.611C450.923 357.303 453.519 352.733 456.079 347.821C463.86 332.892 483.362 293.264 481.107 244.001C480.917 239.848 482.182 237.361 482.748 240.923C483.468 245.459 483.176 254.916 482.977 259.948C482.342 276.063 479.867 289.691 477.257 300.698C468.987 335.579 457.377 355.803 446.744 372.689C412.184 427.577 374.649 449.704 338.156 465.604C305.425 479.865 272.445 486.663 239.52 487.68Z" fill="#401C02"/>
</g>
</g>
<path d="M209.479 199.72C208.7 200.238 207.764 200.466 206.834 200.366C205.904 200.265 205.039 199.842 204.389 199.17L203.969 198.74C203.079 197.82 202.169 196.9 201.249 196L198.589 193.4C197.729 192.57 196.849 191.76 195.959 190.95C195.069 190.14 194.249 189.4 193.389 188.64C192.529 187.88 191.709 187.18 190.849 186.47C189.989 185.76 189.199 185.1 188.369 184.47C187.539 183.84 186.749 183.19 185.919 182.56C185.089 181.93 184.329 181.36 183.529 180.77C182.729 180.18 181.979 179.66 181.179 179.12C180.379 178.58 179.649 178.12 178.879 177.58C178.109 177.04 177.379 176.58 176.619 176.15C175.859 175.72 175.159 175.27 174.409 174.83C173.659 174.39 172.979 174.01 172.249 173.62C171.519 173.23 170.839 172.87 170.139 172.51L168.059 171.51C167.389 171.19 166.709 170.89 166.059 170.59C165.409 170.29 164.739 170.04 164.059 169.77C163.379 169.5 162.789 169.27 162.139 169.04C161.489 168.81 160.889 168.6 160.259 168.39C159.629 168.18 159.029 167.99 158.419 167.81C157.809 167.63 157.239 167.47 156.639 167.32C156.039 167.17 155.489 167.03 154.899 166.9C154.309 166.77 153.779 166.65 153.219 166.54C152.659 166.43 152.119 166.34 151.579 166.25C151.039 166.16 150.509 166.08 149.979 166.01L148.439 165.84C147.949 165.79 147.439 165.76 146.949 165.72L145.509 165.64C145.039 165.64 144.579 165.64 144.109 165.64H142.759H141.469L140.269 165.71L139.059 165.82L137.919 165.99L137.399 166.07C131.269 166.93 128.569 164.69 127.479 161.83C125.779 157.36 128.799 152.51 133.479 151.5C169.739 143.63 196.479 172.95 210.599 194.25C211.162 195.128 211.36 196.191 211.151 197.213C210.942 198.235 210.342 199.134 209.479 199.72Z" fill="#42210B"/>
<path d="M173.519 262.2C189.519 262.2 202.489 245.397 202.489 224.67C202.489 203.943 189.519 187.14 173.519 187.14C157.519 187.14 144.549 203.943 144.549 224.67C144.549 245.397 157.519 262.2 173.519 262.2Z" fill="url(#paint4_radial_862_12545)"/>
<path d="M173.519 262.2C189.519 262.2 202.489 245.397 202.489 224.67C202.489 203.943 189.519 187.14 173.519 187.14C157.519 187.14 144.549 203.943 144.549 224.67C144.549 245.397 157.519 262.2 173.519 262.2Z" stroke="url(#paint5_radial_862_12545)" stroke-width="2" stroke-miterlimit="10"/>
<path d="M272.719 199.72C273.499 200.24 274.437 200.471 275.369 200.37C276.301 200.27 277.168 199.845 277.819 199.17L278.239 198.74C279.129 197.82 280.039 196.9 280.949 196C281.859 195.1 282.719 194.26 283.619 193.4C284.519 192.54 285.359 191.76 286.239 190.95C287.119 190.14 287.949 189.4 288.819 188.64C289.689 187.88 290.499 187.18 291.359 186.47C292.219 185.76 293.009 185.1 293.839 184.47C294.669 183.84 295.459 183.19 296.279 182.56L298.669 180.77C299.449 180.22 300.229 179.66 301.029 179.12C301.829 178.58 302.549 178.12 303.329 177.58C304.109 177.04 304.829 176.58 305.589 176.15C306.349 175.72 307.049 175.27 307.799 174.83C308.549 174.39 309.229 174.01 309.959 173.62C310.689 173.23 311.369 172.87 312.069 172.51L314.139 171.51C314.809 171.19 315.489 170.89 316.139 170.59C316.789 170.29 317.449 170.04 318.139 169.77C318.829 169.5 319.409 169.27 320.059 169.04C320.709 168.81 321.309 168.6 321.939 168.39C322.569 168.18 323.159 167.99 323.779 167.81C324.399 167.63 324.959 167.47 325.549 167.32C326.139 167.17 326.709 167.03 327.299 166.9C327.889 166.77 328.419 166.65 328.979 166.54C329.539 166.43 330.079 166.34 330.619 166.25L332.209 166.01L333.749 165.84C334.249 165.79 334.749 165.76 335.249 165.72L336.689 165.64H338.079H339.429H340.729L341.929 165.71L343.139 165.82L344.309 165.96L344.819 166.04C350.949 166.9 353.659 164.66 354.749 161.8C356.449 157.33 353.429 152.48 348.749 151.47C312.489 143.6 285.749 172.92 271.629 194.22C271.053 195.097 270.845 196.164 271.049 197.193C271.253 198.222 271.853 199.129 272.719 199.72Z" fill="#42210B"/>
<path d="M308.679 262.2C324.679 262.2 337.649 245.397 337.649 224.67C337.649 203.943 324.679 187.14 308.679 187.14C292.679 187.14 279.709 203.943 279.709 224.67C279.709 245.397 292.679 262.2 308.679 262.2Z" fill="url(#paint6_radial_862_12545)"/>
<path d="M308.679 262.2C324.679 262.2 337.649 245.397 337.649 224.67C337.649 203.943 324.679 187.14 308.679 187.14C292.679 187.14 279.709 203.943 279.709 224.67C279.709 245.397 292.679 262.2 308.679 262.2Z" stroke="url(#paint7_radial_862_12545)" stroke-width="2" stroke-miterlimit="10"/>
<path d="M170.743 389.14C170.361 389.437 169.895 389.607 169.412 389.626C168.928 389.645 168.451 389.513 168.047 389.247C167.642 388.981 167.331 388.596 167.156 388.145C166.982 387.693 166.953 387.199 167.073 386.73C175.363 355.8 205.463 332.88 241.333 332.88C277.203 332.88 307.333 355.82 315.603 386.77C315.726 387.24 315.698 387.737 315.524 388.191C315.349 388.645 315.036 389.032 314.63 389.298C314.223 389.565 313.743 389.697 313.257 389.675C312.772 389.654 312.305 389.481 311.923 389.18C294.083 375.82 269.043 367.5 241.333 367.5C213.623 367.5 188.603 375.82 170.743 389.14Z" fill="url(#paint8_radial_862_12545)"/>
<path d="M170.743 389.14C170.361 389.437 169.895 389.607 169.412 389.626C168.928 389.645 168.451 389.513 168.047 389.247C167.642 388.981 167.331 388.596 167.156 388.145C166.982 387.693 166.953 387.199 167.073 386.73C175.363 355.8 205.463 332.88 241.333 332.88C277.203 332.88 307.333 355.82 315.603 386.77C315.726 387.24 315.698 387.737 315.524 388.191C315.349 388.645 315.036 389.032 314.63 389.298C314.223 389.565 313.743 389.697 313.257 389.675C312.772 389.654 312.305 389.481 311.923 389.18C294.083 375.82 269.043 367.5 241.333 367.5C213.623 367.5 188.603 375.82 170.743 389.14Z" stroke="url(#paint9_linear_862_12545)" stroke-width="2" stroke-miterlimit="10"/>
<defs>
<filter id="filter0_f_862_12545" x="-26.8145" y="206.738" width="535.021" height="306.595" filterUnits="userSpaceOnUse" color-interpolation-filters="sRGB">
<feFlood flood-opacity="0" result="BackgroundImageFix"/>
<feBlend mode="normal" in="SourceGraphic" in2="BackgroundImageFix" result="shape"/>
<feGaussianBlur stdDeviation="12.5" result="effect1_foregroundBlur_862_12545"/>
</filter>
<filter id="filter1_f_862_12545" x="-41.8145" y="191.738" width="565.021" height="336.595" filterUnits="userSpaceOnUse" color-interpolation-filters="sRGB">
<feFlood flood-opacity="0" result="BackgroundImageFix"/>
<feBlend mode="normal" in="SourceGraphic" in2="BackgroundImageFix" result="shape"/>
<feGaussianBlur stdDeviation="20" result="effect1_foregroundBlur_862_12545"/>
</filter>
<radialGradient id="paint0_radial_862_12545" cx="0" cy="0" r="1" gradientUnits="userSpaceOnUse" gradientTransform="translate(241.18 241.17) scale(241.18)">
<stop stop-color="#FF8229"/>
<stop offset="0.31" stop-color="#FF8025"/>
<stop offset="0.63" stop-color="#FF7818"/>
<stop offset="0.95" stop-color="#FF6C04"/>
<stop offset="1" stop-color="#FF6A00"/>
</radialGradient>
<radialGradient id="paint1_radial_862_12545" cx="0" cy="0" r="1" gradientUnits="userSpaceOnUse" gradientTransform="translate(241 64.6799) rotate(90) scale(417.5)">
<stop stop-color="white" stop-opacity="0.5"/>
<stop offset="0.782278"/>
</radialGradient>
<radialGradient id="paint2_radial_862_12545" cx="0" cy="0" r="1" gradientUnits="userSpaceOnUse" gradientTransform="translate(241 64.6799) rotate(90) scale(417.5)">
<stop stop-color="white" stop-opacity="0.5"/>
<stop offset="0.782278"/>
</radialGradient>
<radialGradient id="paint3_radial_862_12545" cx="0" cy="0" r="1" gradientUnits="userSpaceOnUse" gradientTransform="translate(241 -52.3201) rotate(90) scale(534.5 722.835)">
<stop offset="0.0922635" stop-color="#FF0000"/>
<stop offset="0.670207" stop-color="white" stop-opacity="0"/>
</radialGradient>
<radialGradient id="paint4_radial_862_12545" cx="0" cy="0" r="1" gradientUnits="userSpaceOnUse" gradientTransform="translate(173.479 224.645) scale(36.9297 37.5951)">
<stop stop-color="#6A2700"/>
<stop offset="1" stop-color="#391800"/>
</radialGradient>
<radialGradient id="paint5_radial_862_12545" cx="0" cy="0" r="1" gradientUnits="userSpaceOnUse" gradientTransform="translate(1.12745e+06 17084.9) rotate(180) scale(2000.09 2591.07)">
<stop stop-color="#FF9143"/>
<stop offset="0.24" stop-color="#FF8F3F"/>
<stop offset="0.49" stop-color="#FF8732"/>
<stop offset="0.74" stop-color="#FF7B1E"/>
<stop offset="0.99" stop-color="#FF6A01"/>
<stop offset="1" stop-color="#FF6A00"/>
</radialGradient>
<radialGradient id="paint6_radial_862_12545" cx="0" cy="0" r="1" gradientUnits="userSpaceOnUse" gradientTransform="translate(308.639 224.645) scale(36.9297 37.5951)">
<stop stop-color="#6A2700"/>
<stop offset="1" stop-color="#391800"/>
</radialGradient>
<radialGradient id="paint7_radial_862_12545" cx="0" cy="0" r="1" gradientUnits="userSpaceOnUse" gradientTransform="translate(1.12758e+06 17084.9) rotate(180) scale(2000.09 2591.07)">
<stop stop-color="#FF9143"/>
<stop offset="0.24" stop-color="#FF8F3F"/>
<stop offset="0.49" stop-color="#FF8732"/>
<stop offset="0.74" stop-color="#FF7B1E"/>
<stop offset="0.99" stop-color="#FF6A01"/>
<stop offset="1" stop-color="#FF6A00"/>
</radialGradient>
<radialGradient id="paint8_radial_862_12545" cx="0" cy="0" r="1" gradientUnits="userSpaceOnUse" gradientTransform="translate(998378 -634556) rotate(180) scale(8391.43 3141.54)">
<stop stop-color="#522A14"/>
<stop offset="1" stop-color="#401C02"/>
</radialGradient>
<linearGradient id="paint9_linear_862_12545" x1="2.89805e+06" y1="13119.4" x2="2.88778e+06" y2="13119.4" gradientUnits="userSpaceOnUse">
<stop stop-color="#B41010"/>
<stop offset="1" stop-color="#FF3D00"/>
</linearGradient>
</defs>
</svg>
